<svg width="22" height="22" viewBox="0 0 22 22" fill="none" xmlns="http://www.w3.org/2000/svg">
<path d="M8.77907 2.35212C9.34277 1.74898 9.62463 1.44741 9.92575 1.27941C10.5935 0.906864 11.4065 0.906864 12.0743 1.27941C12.3754 1.44741 12.6572 1.74898 13.2209 2.35212C13.4749 2.62385 13.6019 2.75972 13.7431 2.8688C14.0532 3.10826 14.4214 3.26079 14.8099 3.31069C14.987 3.33343 15.1728 3.32715 15.5445 3.31459C16.3696 3.2867 16.7822 3.27276 17.1139 3.36689C17.8495 3.57561 18.4244 4.15054 18.6331 4.88612C18.7272 5.21784 18.7133 5.63038 18.6854 6.45546C18.6728 6.82718 18.6666 7.01305 18.6893 7.19006C18.7392 7.57861 18.8917 7.94684 19.1312 8.25688C19.2403 8.39812 19.3761 8.5251 19.6479 8.77907C20.251 9.34277 20.5526 9.62463 20.7206 9.92575C21.0931 10.5935 21.0931 11.4065 20.7206 12.0743C20.5526 12.3754 20.251 12.6572 19.6479 13.2209C19.3761 13.4749 19.2403 13.6019 19.1312 13.7431C18.8917 14.0532 18.7392 14.4214 18.6893 14.8099C18.6666 14.987 18.6728 15.1728 18.6854 15.5445C18.7133 16.3696 18.7272 16.7822 18.6331 17.1139C18.4244 17.8495 17.8495 18.4244 17.1139 18.6331C16.7822 18.7272 16.3696 18.7133 15.5445 18.6854C15.1728 18.6728 14.987 18.6666 14.8099 18.6893C14.4214 18.7392 14.0532 18.8917 13.7431 19.1312C13.6019 19.2403 13.4749 19.3761 13.2209 19.6479C12.6572 20.251 12.3754 20.5526 12.0743 20.7206C11.4065 21.0931 10.5935 21.0931 9.92575 20.7206C9.62463 20.5526 9.34277 20.251 8.77907 19.6479C8.5251 19.3761 8.39812 19.2403 8.25688 19.1312C7.94684 18.8917 7.57861 18.7392 7.19006 18.6893C7.01305 18.6666 6.82718 18.6728 6.45546 18.6854C5.63038 18.7133 5.21784 18.7272 4.88612 18.6331C4.15054 18.4244 3.57561 17.8495 3.36689 17.1139C3.27276 16.7822 3.2867 16.3696 3.31459 15.5445C3.32715 15.1728 3.33343 14.987 3.31069 14.8099C3.26079 14.4214 3.10826 14.0532 2.8688 13.7431C2.75972 13.6019 2.62385 13.4749 2.35212 13.2209C1.74898 12.6572 1.44741 12.3754 1.27941 12.0743C0.906864 11.4065 0.906864 10.5935 1.27941 9.92575C1.44741 9.62463 1.74898 9.34277 2.35212 8.77907C2.62385 8.5251 2.75972 8.39812 2.8688 8.25688C3.10826 7.94684 3.26079 7.5786 3.31069 7.19006C3.33343 7.01305 3.32715 6.82718 3.31459 6.45546C3.2867 5.63038 3.27276 5.21784 3.36689 4.88612C3.57561 4.15054 4.15054 3.57561 4.88612 3.36689C5.21784 3.27276 5.63038 3.2867 6.45546 3.31459C6.82718 3.32715 7.01305 3.33343 7.19006 3.31069C7.5786 3.26079 7.94684 3.10826 8.25688 2.8688C8.39812 2.75972 8.5251 2.62385 8.77907 2.35212Z" stroke="#141B34" stroke-width="1.5"/>
<path d="M16 9V15M13.5 9V13.5C13.5 14.3284 12.8284 15 12 15C11.1716 15 10.5 14.3284 10.5 13.5M10.5 7V13.5M10.5 13.5V9M10.5 13.5C10.5 14.3284 9.82843 15 9 15C8.17157 15 7.5 14.3284 7.5 13.5V9C7.5 9 5 9.5 5 12" stroke="#141B34" stroke-width="1.5" stroke-linecap="round" stroke-linejoin="round"/>
</svg>
