<svg width="36" height="38" viewBox="0 0 36 38" fill="none" xmlns="http://www.w3.org/2000/svg">
<path d="M32 0.674988H5.75C3.817 0.674988 2.25 2.32034 2.25 4.34999V33.75C2.25 35.7796 3.817 37.425 5.75 37.425H32C33.933 37.425 35.5 35.7796 35.5 33.75V4.34999C35.5 2.32034 33.933 0.674988 32 0.674988Z" fill="#01B7F1"/>
<path d="M5.75 28.2375H2.25C1.78587 28.2375 1.34075 28.0439 1.01256 27.6993C0.684374 27.3547 0.5 26.8873 0.5 26.4C0.5 25.9127 0.684374 25.4453 1.01256 25.1007C1.34075 24.7561 1.78587 24.5625 2.25 24.5625H5.75C6.21413 24.5625 6.65925 24.7561 6.98744 25.1007C7.31563 25.4453 7.5 25.9127 7.5 26.4C7.5 26.8873 7.31563 27.3547 6.98744 27.6993C6.65925 28.0439 6.21413 28.2375 5.75 28.2375ZM5.75 20.8875H2.25C1.78587 20.8875 1.34075 20.6939 1.01256 20.3493C0.684374 20.0047 0.5 19.5373 0.5 19.05C0.5 18.5627 0.684374 18.0953 1.01256 17.7507C1.34075 17.4061 1.78587 17.2125 2.25 17.2125H5.75C6.21413 17.2125 6.65925 17.4061 6.98744 17.7507C7.31563 18.0953 7.5 18.5627 7.5 19.05C7.5 19.5373 7.31563 20.0047 6.98744 20.3493C6.65925 20.6939 6.21413 20.8875 5.75 20.8875ZM5.75 13.5375H2.25C1.78587 13.5375 1.34075 13.3439 1.01256 12.9993C0.684374 12.6547 0.5 12.1873 0.5 11.7C0.5 11.2127 0.684374 10.7453 1.01256 10.4007C1.34075 10.0561 1.78587 9.86249 2.25 9.86249H5.75C6.21413 9.86249 6.65925 10.0561 6.98744 10.4007C7.31563 10.7453 7.5 11.2127 7.5 11.7C7.5 12.1873 7.31563 12.6547 6.98744 12.9993C6.65925 13.3439 6.21413 13.5375 5.75 13.5375ZM26.75 9.86249H14.5C14.0359 9.86249 13.5908 10.0561 13.2626 10.4007C12.9344 10.7453 12.75 11.2127 12.75 11.7V15.375C12.75 15.8623 12.9344 16.3297 13.2626 16.6743C13.5908 17.0189 14.0359 17.2125 14.5 17.2125H26.75C27.2141 17.2125 27.6592 17.0189 27.9874 16.6743C28.3156 16.3297 28.5 15.8623 28.5 15.375V11.7C28.5 11.2127 28.3156 10.7453 27.9874 10.4007C27.6592 10.0561 27.2141 9.86249 26.75 9.86249Z" fill="#F2F2F2"/>
</svg>
