<svg width="184" height="14" viewBox="0 0 184 14" fill="none" xmlns="http://www.w3.org/2000/svg">
<path d="M14.02 8.89957C15.29 8.82957 17.12 8.82957 19.41 8.77957C20.55 8.72957 21.81 8.66957 23.18 8.59957C24.54 8.51957 26 8.36957 27.55 8.24957C33.76 7.72957 41.32 6.27957 49.63 5.14957C53.78 4.56957 57.83 4.29957 61.62 4.21957C65.41 4.23957 68.94 4.42957 72.06 4.91957C75.19 5.30957 77.89 6.02957 80.14 6.54957C82.35 7.22957 84.09 7.79957 85.28 8.21957C84.03 8.00957 82.24 7.63957 80 7.14957C77.73 6.81957 75.03 6.26957 71.93 6.01957C68.84 5.66957 65.37 5.59957 61.65 5.64957C57.93 5.80957 53.95 6.10957 49.83 6.67957C41.59 7.79957 33.93 9.08957 27.63 9.34957C26.06 9.39957 24.58 9.47957 23.2 9.46957C21.83 9.43957 20.55 9.40957 19.4 9.37957C17.1 9.23957 15.27 9.02957 14.02 8.87957V8.89957Z" fill="#01B7F1"/>
<path d="M8.40991 6.85C8.87991 6.12 9.87991 5.61 11.0499 5.61C12.2199 5.61 13.2099 6.12 13.6899 6.85C13.2199 7.58 12.2199 8.09 11.0499 8.09C9.87991 8.09 8.88991 7.58 8.40991 6.85Z" fill="#005773"/>
<path d="M0 6.85C0.47 6.12 1.47 5.61 2.64 5.61C3.81 5.61 4.8 6.12 5.28 6.85C4.81 7.58 3.81 8.09 2.64 8.09C1.47 8.09 0.48 7.58 0 6.85Z" fill="#005773"/>
<path d="M6.8401 8.41C7.5701 8.88 8.0801 9.88 8.0801 11.05C8.0801 12.22 7.5701 13.21 6.8401 13.69C6.1101 13.22 5.6001 12.22 5.6001 11.05C5.6001 9.88 6.1101 8.89 6.8401 8.41Z" fill="#005773"/>
<path d="M6.8401 -9.53674e-07C7.5701 0.469999 8.0801 1.47 8.0801 2.64C8.0801 3.81 7.5701 4.8 6.8401 5.28C6.1101 4.81 5.6001 3.81 5.6001 2.64C5.6001 1.47 6.1101 0.479999 6.8401 -9.53674e-07Z" fill="#005773"/>
<path d="M6.06003 5.48999C6.81003 5.05999 7.77003 5.30999 8.20003 6.05999C8.63003 6.80999 8.37003 7.76999 7.62003 8.19999C6.87003 8.62999 5.91003 8.37999 5.48003 7.62999C5.05003 6.87999 5.30003 5.91999 6.05003 5.48999H6.06003Z" fill="#005773"/>
<path d="M8.79995 4.9C8.68995 4.38 8.89995 3.72 9.40995 3.21C9.91995 2.7 10.5699 2.49 11.0899 2.6C11.1999 3.12 10.9899 3.78 10.4799 4.28C9.96995 4.79 9.31995 5 8.79995 4.89V4.9Z" fill="#005773"/>
<path d="M2.59999 11.09C2.48999 10.57 2.7 9.91 3.21 9.4C3.72 8.89 4.36999 8.68 4.88999 8.79C4.99999 9.31 4.79 9.97 4.28 10.47C3.77 10.98 3.11999 11.19 2.59999 11.08V11.09Z" fill="#005773"/>
<path d="M8.78995 8.80001C9.30995 8.69001 9.96995 8.90001 10.4799 9.41001C10.9899 9.92001 11.1999 10.57 11.0899 11.09C10.5699 11.2 9.90995 10.99 9.40995 10.48C8.89995 9.97001 8.68995 9.32001 8.79995 8.80001H8.78995Z" fill="#005773"/>
<path d="M2.59999 2.6C3.11999 2.49 3.78 2.7 4.28 3.21C4.79 3.72 4.99999 4.37 4.88999 4.89C4.36999 5 3.71 4.79 3.21 4.28C2.7 3.77 2.48999 3.12 2.59999 2.6Z" fill="#005773"/>
<path d="M90.93 10.44C90.05 9.92999 89.75 8.80999 90.26 7.92999C90.77 7.04999 91.89 6.74999 92.77 7.25999C93.65 7.76999 93.94 8.88999 93.44 9.75999C92.93 10.64 91.82 10.94 90.94 10.43L90.93 10.44Z" fill="#01B7F1"/>
<path d="M169.954 8.89957C168.684 8.82957 166.854 8.82957 164.564 8.77957C163.424 8.72957 162.164 8.66957 160.794 8.59957C159.434 8.51957 157.974 8.36957 156.414 8.24957C150.204 7.72957 142.644 6.27957 134.334 5.14957C130.184 4.56957 126.134 4.29957 122.344 4.21957C118.554 4.23957 115.024 4.42957 111.904 4.91957C108.774 5.30957 106.074 6.02957 103.824 6.54957C101.614 7.22957 99.8741 7.79957 98.6841 8.21957C99.9341 8.00957 101.724 7.63957 103.964 7.14957C106.234 6.81957 108.934 6.26957 112.034 6.01957C115.124 5.66957 118.594 5.59957 122.314 5.64957C126.034 5.80957 130.014 6.10957 134.134 6.67957C142.374 7.79957 150.034 9.08957 156.334 9.34957C157.904 9.39957 159.384 9.47957 160.764 9.46957C162.134 9.43957 163.414 9.40957 164.564 9.37957C166.864 9.23957 168.694 9.02957 169.944 8.87957L169.954 8.89957Z" fill="#01B7F1"/>
<path d="M175.564 6.85C175.094 6.12 174.094 5.61 172.924 5.61C171.754 5.61 170.764 6.12 170.284 6.85C170.754 7.58 171.754 8.09 172.924 8.09C174.094 8.09 175.084 7.58 175.564 6.85Z" fill="#005773"/>
<path d="M183.974 6.85C183.504 6.12 182.504 5.61 181.334 5.61C180.164 5.61 179.174 6.12 178.694 6.85C179.164 7.58 180.164 8.09 181.334 8.09C182.504 8.09 183.494 7.58 183.974 6.85Z" fill="#005773"/>
<path d="M177.124 8.41C176.394 8.88 175.884 9.88 175.884 11.05C175.884 12.22 176.394 13.21 177.124 13.69C177.854 13.22 178.364 12.22 178.364 11.05C178.364 9.88 177.854 8.89 177.124 8.41Z" fill="#005773"/>
<path d="M177.124 -9.53674e-07C176.394 0.469999 175.884 1.47 175.884 2.64C175.884 3.81 176.394 4.8 177.124 5.28C177.854 4.81 178.364 3.81 178.364 2.64C178.364 1.47 177.854 0.479999 177.124 -9.53674e-07Z" fill="#005773"/>
<path d="M177.914 5.48999C177.164 5.05999 176.204 5.30999 175.774 6.05999C175.344 6.80999 175.604 7.76999 176.354 8.19999C177.104 8.62999 178.064 8.37999 178.494 7.62999C178.924 6.87999 178.674 5.91999 177.924 5.48999H177.914Z" fill="#005773"/>
<path d="M175.174 4.9C175.284 4.38 175.074 3.72 174.564 3.21C174.054 2.7 173.404 2.49 172.884 2.6C172.774 3.12 172.984 3.78 173.494 4.28C174.004 4.79 174.654 5 175.174 4.89V4.9Z" fill="#005773"/>
<path d="M181.374 11.09C181.484 10.57 181.274 9.91 180.764 9.4C180.254 8.89 179.604 8.68 179.084 8.79C178.974 9.31 179.184 9.97 179.694 10.47C180.204 10.98 180.854 11.19 181.374 11.08V11.09Z" fill="#005773"/>
<path d="M175.174 8.80001C174.654 8.69001 173.994 8.90001 173.484 9.41001C172.974 9.92001 172.764 10.57 172.874 11.09C173.394 11.2 174.054 10.99 174.554 10.48C175.064 9.97001 175.274 9.32001 175.164 8.80001H175.174Z" fill="#005773"/>
<path d="M181.374 2.6C180.854 2.49 180.194 2.7 179.694 3.21C179.184 3.72 178.974 4.37 179.084 4.89C179.604 5 180.264 4.79 180.764 4.28C181.274 3.77 181.484 3.12 181.374 2.6Z" fill="#005773"/>
</svg>
