<svg width="184" height="14" viewBox="0 0 184 14" fill="none" xmlns="http://www.w3.org/2000/svg">
<path d="M14.02 4.79042C15.29 4.86042 17.12 4.86042 19.41 4.91042C20.55 4.96042 21.81 5.02042 23.18 5.09042C24.54 5.17042 26 5.32042 27.55 5.44042C33.76 5.96042 41.32 7.41042 49.63 8.54042C53.78 9.12042 57.83 9.39042 61.62 9.47042C65.41 9.45042 68.94 9.26042 72.06 8.77042C75.19 8.38042 77.89 7.66042 80.14 7.14042C82.35 6.46042 84.09 5.89042 85.28 5.47042C84.03 5.68042 82.24 6.05042 80 6.54042C77.73 6.87042 75.03 7.42042 71.93 7.67042C68.84 8.02042 65.37 8.09042 61.65 8.04042C57.93 7.88042 53.95 7.58042 49.83 7.01042C41.59 5.89042 33.93 4.60042 27.63 4.34042C26.06 4.29042 24.58 4.21042 23.2 4.22042C21.83 4.25042 20.55 4.28042 19.4 4.31042C17.1 4.45042 15.27 4.66042 14.02 4.81042V4.79042Z" fill="#01B7F1"/>
<path d="M8.40991 6.84C8.87991 7.57 9.87991 8.08 11.0499 8.08C12.2199 8.08 13.2099 7.57 13.6899 6.84C13.2199 6.11 12.2199 5.6 11.0499 5.6C9.87991 5.6 8.88991 6.11 8.40991 6.84Z" fill="#005773"/>
<path d="M0 6.84C0.47 7.57 1.47 8.08 2.64 8.08C3.81 8.08 4.8 7.57 5.28 6.84C4.81 6.11 3.81 5.6 2.64 5.6C1.47 5.6 0.48 6.11 0 6.84Z" fill="#005773"/>
<path d="M6.8401 5.28C7.5701 4.81 8.0801 3.81 8.0801 2.64C8.0801 1.47 7.5701 0.48 6.8401 0C6.1101 0.47 5.6001 1.47 5.6001 2.64C5.6001 3.81 6.1101 4.8 6.8401 5.28Z" fill="#005773"/>
<path d="M6.8401 13.69C7.5701 13.22 8.0801 12.22 8.0801 11.05C8.0801 9.88 7.5701 8.89 6.8401 8.41C6.1101 8.88 5.6001 9.88 5.6001 11.05C5.6001 12.22 6.1101 13.21 6.8401 13.69Z" fill="#005773"/>
<path d="M6.06003 8.2C6.81003 8.63 7.77003 8.38 8.20003 7.63C8.63003 6.88 8.37003 5.92 7.62003 5.49C6.87003 5.06 5.91003 5.31 5.48003 6.06C5.05003 6.81 5.30003 7.77 6.05003 8.2H6.06003Z" fill="#005773"/>
<path d="M8.79995 8.79C8.68995 9.31 8.89995 9.97 9.40995 10.48C9.91995 10.99 10.5699 11.2 11.0899 11.09C11.1999 10.57 10.9899 9.91 10.4799 9.41C9.96995 8.9 9.31995 8.69 8.79995 8.8V8.79Z" fill="#005773"/>
<path d="M2.59999 2.6C2.48999 3.12 2.7 3.78 3.21 4.29C3.72 4.8 4.36999 5.01 4.88999 4.9C4.99999 4.38 4.79 3.72 4.28 3.22C3.77 2.71 3.11999 2.5 2.59999 2.61V2.6Z" fill="#005773"/>
<path d="M8.78995 4.89C9.30995 5 9.96995 4.79 10.4799 4.28C10.9899 3.77 11.1999 3.12 11.0899 2.6C10.5699 2.49 9.90995 2.7 9.40995 3.21C8.89995 3.72 8.68995 4.37 8.79995 4.89H8.78995Z" fill="#005773"/>
<path d="M2.59999 11.09C3.11999 11.2 3.78 10.99 4.28 10.48C4.79 9.97001 4.99999 9.32001 4.88999 8.80001C4.36999 8.69001 3.71 8.90001 3.21 9.41001C2.7 9.92001 2.48999 10.57 2.59999 11.09Z" fill="#005773"/>
<path d="M90.93 3.25C90.05 3.76 89.75 4.88 90.26 5.76C90.77 6.64 91.89 6.94 92.77 6.43C93.65 5.92 93.94 4.8 93.44 3.93C92.93 3.05 91.82 2.75 90.94 3.26L90.93 3.25Z" fill="#01B7F1"/>
<path d="M169.954 4.79042C168.684 4.86042 166.854 4.86042 164.564 4.91042C163.424 4.96042 162.164 5.02042 160.794 5.09042C159.434 5.17042 157.974 5.32042 156.414 5.44042C150.204 5.96042 142.644 7.41042 134.334 8.54042C130.184 9.12042 126.134 9.39042 122.344 9.47042C118.554 9.45042 115.024 9.26042 111.904 8.77042C108.774 8.38042 106.074 7.66042 103.824 7.14042C101.614 6.46042 99.8741 5.89042 98.6841 5.47042C99.9341 5.68042 101.724 6.05042 103.964 6.54042C106.234 6.87042 108.934 7.42042 112.034 7.67042C115.124 8.02042 118.594 8.09042 122.314 8.04042C126.034 7.88042 130.014 7.58042 134.134 7.01042C142.374 5.89042 150.034 4.60042 156.334 4.34042C157.904 4.29042 159.384 4.21042 160.764 4.22042C162.134 4.25042 163.414 4.28042 164.564 4.31042C166.864 4.45042 168.694 4.66042 169.944 4.81042L169.954 4.79042Z" fill="#01B7F1"/>
<path d="M175.564 6.84C175.094 7.57 174.094 8.08 172.924 8.08C171.754 8.08 170.764 7.57 170.284 6.84C170.754 6.11 171.754 5.6 172.924 5.6C174.094 5.6 175.084 6.11 175.564 6.84Z" fill="#005773"/>
<path d="M183.974 6.84C183.504 7.57 182.504 8.08 181.334 8.08C180.164 8.08 179.174 7.57 178.694 6.84C179.164 6.11 180.164 5.6 181.334 5.6C182.504 5.6 183.494 6.11 183.974 6.84Z" fill="#005773"/>
<path d="M177.124 5.28C176.394 4.81 175.884 3.81 175.884 2.64C175.884 1.47 176.394 0.48 177.124 0C177.854 0.47 178.364 1.47 178.364 2.64C178.364 3.81 177.854 4.8 177.124 5.28Z" fill="#005773"/>
<path d="M177.124 13.69C176.394 13.22 175.884 12.22 175.884 11.05C175.884 9.88 176.394 8.89 177.124 8.41C177.854 8.88 178.364 9.88 178.364 11.05C178.364 12.22 177.854 13.21 177.124 13.69Z" fill="#005773"/>
<path d="M177.914 8.2C177.164 8.63 176.204 8.38 175.774 7.63C175.344 6.88 175.604 5.92 176.354 5.49C177.104 5.06 178.064 5.31 178.494 6.06C178.924 6.81 178.674 7.77 177.924 8.2H177.914Z" fill="#005773"/>
<path d="M175.174 8.79C175.284 9.31 175.074 9.97 174.564 10.48C174.054 10.99 173.404 11.2 172.884 11.09C172.774 10.57 172.984 9.91 173.494 9.41C174.004 8.9 174.654 8.69 175.174 8.8V8.79Z" fill="#005773"/>
<path d="M181.374 2.6C181.484 3.12 181.274 3.78 180.764 4.29C180.254 4.8 179.604 5.01 179.084 4.9C178.974 4.38 179.184 3.72 179.694 3.22C180.204 2.71 180.854 2.5 181.374 2.61V2.6Z" fill="#005773"/>
<path d="M175.174 4.89C174.654 5 173.994 4.79 173.484 4.28C172.974 3.77 172.764 3.12 172.874 2.6C173.394 2.49 174.054 2.7 174.554 3.21C175.064 3.72 175.274 4.37 175.164 4.89H175.174Z" fill="#005773"/>
<path d="M181.374 11.09C180.854 11.2 180.194 10.99 179.694 10.48C179.184 9.97001 178.974 9.32001 179.084 8.80001C179.604 8.69001 180.264 8.90001 180.764 9.41001C181.274 9.92001 181.484 10.57 181.374 11.09Z" fill="#005773"/>
</svg>
