<svg width="22" height="20" viewBox="0 0 22 20" fill="none" xmlns="http://www.w3.org/2000/svg">
<path d="M18 11L17.3417 10.3417C16.5896 9.58958 15.3803 9.55777 14.5896 10.2694L11.9931 12.6062C11.361 13.1751 11 13.9856 11 14.8361V19H13.6865C14.5238 19 15.323 18.6501 15.8909 18.0348L20.2044 13.3619C20.7159 12.8077 21 12.0812 21 11.327V4H20C18.8954 4 18 4.89543 18 6V11ZM18 11L15 14" stroke="#141B34" stroke-width="1.5" stroke-linecap="round" stroke-linejoin="round"/>
<path d="M4 11L4.65826 10.3417C5.41042 9.58958 6.61975 9.55777 7.41041 10.2694L10.0069 12.6062C10.639 13.1751 11 13.9856 11 14.8361V19H8.31349C7.4762 19 6.677 18.6501 6.10908 18.0348L1.79559 13.3619C1.28405 12.8077 1 12.0812 1 11.327V4H2C3.10457 4 4 4.89543 4 6V11ZM4 11L7 14" stroke="#141B34" stroke-width="1.5" stroke-linecap="round" stroke-linejoin="round"/>
<path d="M14 5.43427C13.4347 6.3725 12.406 7 11.2308 7C9.44646 7 8 5.55354 8 3.76923C8 2.594 8.6275 1.56534 9.56573 1" stroke="#141B34" stroke-width="1.5" stroke-linecap="round"/>
<path d="M13 2H13.009" stroke="#141B34" stroke-width="2" stroke-linecap="round" stroke-linejoin="round"/>
</svg>
