<svg width="21" height="21" viewBox="0 0 21 21" fill="none" xmlns="http://www.w3.org/2000/svg">
<path d="M10.25 0.216309C15.773 0.216309 20.25 4.69331 20.25 10.2163C20.25 15.7393 15.773 20.2163 10.25 20.2163C4.727 20.2163 0.25 15.7393 0.25 10.2163C0.25 4.69331 4.727 0.216309 10.25 0.216309ZM10.25 2.21631C8.12827 2.21631 6.09344 3.05916 4.59315 4.55945C3.09285 6.05975 2.25 8.09458 2.25 10.2163C2.25 12.338 3.09285 14.3729 4.59315 15.8732C6.09344 17.3735 8.12827 18.2163 10.25 18.2163C12.3717 18.2163 14.4066 17.3735 15.9069 15.8732C17.4071 14.3729 18.25 12.338 18.25 10.2163C18.25 8.09458 17.4071 6.05975 15.9069 4.55945C14.4066 3.05916 12.3717 2.21631 10.25 2.21631ZM10.25 4.21631C10.4949 4.21634 10.7313 4.30626 10.9144 4.46902C11.0974 4.63178 11.2143 4.85606 11.243 5.09931L11.25 5.21631V9.80231L13.957 12.5093C14.1363 12.6893 14.2405 12.9307 14.2482 13.1847C14.256 13.4386 14.1668 13.686 13.9988 13.8766C13.8307 14.0672 13.5964 14.1866 13.3435 14.2107C13.0906 14.2348 12.838 14.1617 12.637 14.0063L12.543 13.9233L9.543 10.9233C9.38758 10.7678 9.28776 10.5653 9.259 10.3473L9.25 10.2163V5.21631C9.25 4.95109 9.35536 4.69674 9.54289 4.5092C9.73043 4.32167 9.98478 4.21631 10.25 4.21631Z" fill="#A1A1A1"/>
</svg>
