<svg width="20" height="21" viewBox="0 0 20 21" fill="none" xmlns="http://www.w3.org/2000/svg">
<path d="M10 0.127075C15.523 0.127075 20 4.60408 20 10.1271C20 15.6501 15.523 20.1271 10 20.1271C4.477 20.1271 0 15.6501 0 10.1271C0 4.60408 4.477 0.127075 10 0.127075ZM10 2.12708C7.87827 2.12708 5.84344 2.96993 4.34315 4.47022C2.84285 5.97051 2 8.00534 2 10.1271C2 12.2488 2.84285 14.2836 4.34315 15.7839C5.84344 17.2842 7.87827 18.1271 10 18.1271C12.1217 18.1271 14.1566 17.2842 15.6569 15.7839C17.1571 14.2836 18 12.2488 18 10.1271C18 8.00534 17.1571 5.97051 15.6569 4.47022C14.1566 2.96993 12.1217 2.12708 10 2.12708ZM10 4.12708C10.2449 4.12711 10.4813 4.21703 10.6644 4.37979C10.8474 4.54255 10.9643 4.76682 10.993 5.01008L11 5.12708V9.71308L13.707 12.4201C13.8863 12.6 13.9905 12.8415 13.9982 13.0955C14.006 13.3494 13.9168 13.5968 13.7488 13.7874C13.5807 13.9779 13.3464 14.0974 13.0935 14.1215C12.8406 14.1456 12.588 14.0725 12.387 13.9171L12.293 13.8341L9.293 10.8341C9.13758 10.6785 9.03776 10.4761 9.009 10.2581L9 10.1271V5.12708C9 4.86186 9.10536 4.6075 9.29289 4.41997C9.48043 4.23243 9.73478 4.12708 10 4.12708Z" fill="#01B7F1"/>
</svg>
