<svg width="18" height="18" viewBox="0 0 18 18" fill="none" xmlns="http://www.w3.org/2000/svg">
<path d="M0.25 6C0.25 4.47501 0.855802 3.01247 1.93414 1.93414C3.01247 0.855802 4.47501 0.25 6 0.25H13.013C13.2119 0.25 13.4027 0.329018 13.5433 0.46967C13.684 0.610322 13.763 0.801088 13.763 1C13.763 1.19891 13.684 1.38968 13.5433 1.53033C13.4027 1.67098 13.2119 1.75 13.013 1.75H6C4.87283 1.75 3.79183 2.19777 2.9948 2.9948C2.19777 3.79183 1.75 4.87283 1.75 6V13.107C1.75 13.3059 1.67098 13.4967 1.53033 13.6373C1.38968 13.778 1.19891 13.857 1 13.857C0.801088 13.857 0.610322 13.778 0.46967 13.6373C0.329018 13.4967 0.25 13.3059 0.25 13.107V6Z" fill="black"/>
<path d="M15.4029 3.793C12.1442 3.43094 8.85552 3.43094 5.59688 3.793C5.14595 3.84309 4.72522 4.04426 4.40313 4.36381C4.08104 4.68336 3.87654 5.10247 3.82288 5.553C3.4386 8.8398 3.4386 12.1602 3.82288 15.447C3.87654 15.8975 4.08104 16.3166 4.40313 16.6362C4.72522 16.9557 5.14595 17.1569 5.59688 17.207C8.83788 17.569 12.1619 17.569 15.4029 17.207C15.8538 17.1569 16.2745 16.9557 16.5966 16.6362C16.9187 16.3166 17.1232 15.8975 17.1769 15.447C17.5612 12.1602 17.5612 8.8398 17.1769 5.553C17.1232 5.10247 16.9187 4.68336 16.5966 4.36381C16.2745 4.04426 15.8538 3.84309 15.4029 3.793Z" fill="black"/>
</svg>
