<svg width="24" height="25" viewBox="0 0 24 25" fill="none" xmlns="http://www.w3.org/2000/svg">
<path fill-rule="evenodd" clip-rule="evenodd" d="M19.6085 19.529H13.2315C12.8175 19.529 12.4815 19.879 12.4815 20.3102C12.4815 20.7415 12.8175 21.0915 13.2315 21.0915H19.6085C20.0225 21.0915 20.3585 20.7415 20.3585 20.3102C20.3585 19.879 20.0225 19.529 19.6085 19.529Z" fill="black"/>
<path fill-rule="evenodd" clip-rule="evenodd" d="M9.36667 8.06183C9.46611 7.92406 9.65387 7.89618 9.78631 7.99953L14.9663 12.0416C15.099 12.1452 15.1259 12.3412 15.0263 12.4793L10.2066 19.1667C9.04664 20.7812 7.29664 21.1042 6.08664 21.1042C5.33664 21.1042 4.79664 20.9792 4.73664 20.9687C4.60664 20.9375 4.48664 20.8437 4.41664 20.7187C4.34664 20.5833 2.62664 17.3958 4.54664 14.7396L9.36667 8.06183Z" fill="black"/>
<path fill-rule="evenodd" clip-rule="evenodd" d="M16.9566 9.80207L16.2866 10.7299C16.1872 10.8676 15.9994 10.8955 15.867 10.7922L10.6862 6.74942C10.5538 6.64611 10.5267 6.45067 10.6256 6.31252L11.2966 5.37499C11.9866 4.40624 13.0566 3.89582 14.1366 3.89582C14.8766 3.89582 15.6166 4.1354 16.2566 4.6354C17.0066 5.22915 17.4966 6.09374 17.6366 7.06249C17.7666 8.04165 17.5266 9.0104 16.9566 9.80207Z" fill="black"/>
</svg>
