<svg width="30" height="29" viewBox="0 0 30 29" fill="none" xmlns="http://www.w3.org/2000/svg">
<path d="M21.5544 0.671448C18.7329 0.671448 16.3219 2.8502 14.9973 4.35228C13.6727 2.8502 11.2671 0.671448 8.44692 0.671448C3.58596 0.671448 0.192307 4.34207 0.192307 9.59645C0.192307 15.386 4.40711 19.1281 8.48461 22.7477C10.4096 24.4583 12.4019 26.2258 13.9298 28.1858C14.1869 28.5139 14.5638 28.7035 14.9596 28.7035H15.0377C15.4348 28.7035 15.8104 28.5125 16.0662 28.1858C17.5967 26.2258 19.5877 24.4569 21.514 22.7477C25.5902 19.1296 29.8077 15.3875 29.8077 9.59645C29.8077 4.34207 26.414 0.671448 21.5544 0.671448Z" fill="#01B7F1"/>
</svg>
