<svg width="21" height="21" viewBox="0 0 21 21" fill="none" xmlns="http://www.w3.org/2000/svg">
<path d="M14.9315 0.889008C12.9967 0.889008 11.3435 2.38301 10.4352 3.41301C9.52689 2.38301 7.87736 0.889008 5.94351 0.889008C2.61028 0.889008 0.283203 3.40601 0.283203 7.00901C0.283203 10.979 3.17336 13.545 5.96936 16.027C7.28936 17.2 8.65551 18.412 9.7032 19.756C9.87951 19.981 10.138 20.111 10.4094 20.111H10.4629C10.7352 20.111 10.9927 19.98 11.1681 19.756C12.2177 18.412 13.5829 17.199 14.9038 16.027C17.6989 13.546 20.5909 10.98 20.5909 7.00901C20.5909 3.40601 18.2638 0.889008 14.9315 0.889008Z" fill="#005773"/>
</svg>
