<svg width="23" height="20" viewBox="0 0 23 20" fill="none" xmlns="http://www.w3.org/2000/svg">
<path d="M20.5 11.3146C20.174 11.3142 19.8526 11.3916 19.5625 11.5405V11.1271C19.5625 7.31051 16.8147 5.48145 14.6059 4.01145C13.2409 3.10301 12.0625 2.31458 12.0625 1.37708C12.0625 1.22789 12.0032 1.08482 11.8977 0.979328C11.7923 0.873838 11.6492 0.814575 11.5 0.814575C11.3508 0.814575 11.2077 0.873838 11.1023 0.979328C10.9968 1.08482 10.9375 1.22789 10.9375 1.37708C10.9375 2.31458 9.75906 3.10301 8.39406 4.01145C6.18531 5.48145 3.4375 7.31051 3.4375 11.1271V11.5405C3.12311 11.3801 2.77282 11.303 2.42013 11.3167C2.06744 11.3303 1.72416 11.4343 1.42313 11.6186C1.12211 11.8029 0.873409 12.0613 0.700837 12.3692C0.528266 12.6771 0.437595 13.0241 0.4375 13.3771V18.6271C0.4375 18.7763 0.496763 18.9193 0.602252 19.0248C0.707742 19.1303 0.850816 19.1896 1 19.1896H7C7.14918 19.1896 7.29226 19.1303 7.39775 19.0248C7.50324 18.9193 7.5625 18.7763 7.5625 18.6271V15.6271C7.5625 15.3784 7.66127 15.14 7.83709 14.9642C8.0129 14.7883 8.25136 14.6896 8.5 14.6896C8.74864 14.6896 8.9871 14.7883 9.16291 14.9642C9.33873 15.14 9.4375 15.3784 9.4375 15.6271V18.6271C9.4375 18.7763 9.49676 18.9193 9.60225 19.0248C9.70774 19.1303 9.85082 19.1896 10 19.1896H13C13.1492 19.1896 13.2923 19.1303 13.3977 19.0248C13.5032 18.9193 13.5625 18.7763 13.5625 18.6271V15.6271C13.5625 15.3784 13.6613 15.14 13.8371 14.9642C14.0129 14.7883 14.2514 14.6896 14.5 14.6896C14.7486 14.6896 14.9871 14.7883 15.1629 14.9642C15.3387 15.14 15.4375 15.3784 15.4375 15.6271V18.6271C15.4375 18.7763 15.4968 18.9193 15.6023 19.0248C15.7077 19.1303 15.8508 19.1896 16 19.1896H22C22.1492 19.1896 22.2923 19.1303 22.3977 19.0248C22.5032 18.9193 22.5625 18.7763 22.5625 18.6271V13.3771C22.5625 12.8301 22.3452 12.3055 21.9584 11.9187C21.5716 11.5319 21.047 11.3146 20.5 11.3146ZM9.0175 4.94801C9.98969 4.30114 10.9281 3.67676 11.5 2.92583C12.0719 3.67583 13.0103 4.30114 13.9825 4.94801C15.9447 6.25208 18.1562 7.72489 18.4122 10.5646H4.58781C4.84375 7.72489 7.05531 6.25208 9.0175 4.94801ZM1.5625 13.3771C1.5625 13.1284 1.66127 12.89 1.83709 12.7142C2.0129 12.5383 2.25136 12.4396 2.5 12.4396C2.74864 12.4396 2.9871 12.5383 3.16291 12.7142C3.33873 12.89 3.4375 13.1284 3.4375 13.3771V18.0646H1.5625V13.3771ZM14.5 13.5646C13.953 13.5646 13.4284 13.7819 13.0416 14.1687C12.6548 14.5555 12.4375 15.0801 12.4375 15.6271V18.0646H10.5625V15.6271C10.5625 15.0801 10.3452 14.5555 9.95841 14.1687C9.57161 13.7819 9.04701 13.5646 8.5 13.5646C7.95299 13.5646 7.42839 13.7819 7.04159 14.1687C6.6548 14.5555 6.4375 15.0801 6.4375 15.6271V18.0646H4.5625V11.6896H18.4375V18.0646H16.5625V15.6271C16.5625 15.0801 16.3452 14.5555 15.9584 14.1687C15.5716 13.7819 15.047 13.5646 14.5 13.5646ZM21.4375 18.0646H19.5625V13.3771C19.5625 13.1284 19.6613 12.89 19.8371 12.7142C20.0129 12.5383 20.2514 12.4396 20.5 12.4396C20.7486 12.4396 20.9871 12.5383 21.1629 12.7142C21.3387 12.89 21.4375 13.1284 21.4375 13.3771V18.0646Z" fill="#A1A1A1"/>
</svg>
