<svg width="36" height="44" viewBox="0 0 36 44" fill="none" xmlns="http://www.w3.org/2000/svg">
<path d="M11.3062 16C4.36427 9 15.0251 5.5 17.9999 2C20.9751 5.5 31.6358 9 24.6937 16H11.3062Z" stroke="#141B34" stroke-width="3" stroke-linecap="round" stroke-linejoin="round"/>
<path d="M30 22V20C30 18.1144 30 17.1716 29.4142 16.5858C28.8284 16 27.8856 16 26 16H10C8.11438 16 7.17157 16 6.58579 16.5858C6 17.1716 6 18.1144 6 20V22" stroke="#141B34" stroke-width="3" stroke-linecap="round" stroke-linejoin="round"/>
<path d="M28 22H8C5.17157 22 3.75736 22 2.87868 22.8787C2 23.7574 2 25.1716 2 28V36C2 38.8284 2 40.2426 2.87868 41.1213C3.75736 42 5.17157 42 8 42H28C30.8284 42 32.2426 42 33.1213 41.1213C34 40.2426 34 38.8284 34 36V28C34 25.1716 34 23.7574 33.1213 22.8787C32.2426 22 30.8284 22 28 22Z" stroke="#141B34" stroke-width="3" stroke-linecap="round" stroke-linejoin="round"/>
<path d="M13.0002 42V36C12.9656 30 18 28 18 28C18 28 23.0344 30 22.9998 36V42" stroke="#141B34" stroke-width="3" stroke-linecap="round" stroke-linejoin="round"/>
</svg>
