<svg width="25" height="24" viewBox="0 0 25 24" fill="none" xmlns="http://www.w3.org/2000/svg">
<g clip-path="url(#clip0_2_723)">
<path d="M12.5 7.18136C13.5533 7.18121 14.5881 7.45834 15.5003 7.98489C16.4125 8.51144 17.1701 9.26885 17.6968 10.181C18.2235 11.0931 18.5008 12.1279 18.5008 13.1811C18.5009 14.2344 18.2236 15.2692 17.697 16.1814H20.5C20.7652 16.1814 21.0196 16.2867 21.2071 16.4743C21.3946 16.6618 21.5 16.9161 21.5 17.1814C21.5 17.4466 21.3946 17.7009 21.2071 17.8885C21.0196 18.076 20.7652 18.1814 20.5 18.1814H4.5C4.23478 18.1814 3.98043 18.076 3.79289 17.8885C3.60536 17.7009 3.5 17.4466 3.5 17.1814C3.5 16.9161 3.60536 16.6618 3.79289 16.4743C3.98043 16.2867 4.23478 16.1814 4.5 16.1814H7.303C6.77635 15.2692 6.49911 14.2344 6.49915 13.1811C6.49919 12.1279 6.7765 11.0931 7.30321 10.181C7.82992 9.26885 8.58747 8.51144 9.4997 7.98489C10.4119 7.45834 11.4467 7.18121 12.5 7.18136ZM12.5 9.18136C11.7064 9.1813 10.9306 9.41733 10.2715 9.85942C9.61243 10.3015 9.09974 10.9297 8.79868 11.664C8.49762 12.3983 8.4218 13.2056 8.58088 13.9831C8.73995 14.7606 9.12673 15.4733 9.692 16.0304L9.855 16.1804H15.145C15.7539 15.6429 16.1849 14.9328 16.3804 14.1445C16.576 13.3562 16.527 12.5271 16.2398 11.7673C15.9527 11.0076 15.4411 10.3532 14.7731 9.89129C14.105 9.42936 13.3122 9.18174 12.5 9.18136ZM21.5 12.1814C21.7549 12.1816 22 12.2792 22.1854 12.4542C22.3707 12.6292 22.4822 12.8683 22.4972 13.1228C22.5121 13.3772 22.4293 13.6277 22.2657 13.8232C22.1021 14.0186 21.8701 14.1443 21.617 14.1744L21.5 14.1814H20.5C20.2451 14.1811 20 14.0835 19.8146 13.9085C19.6293 13.7335 19.5178 13.4944 19.5028 13.24C19.4879 12.9855 19.5707 12.735 19.7343 12.5395C19.8979 12.3441 20.1299 12.2185 20.383 12.1884L20.5 12.1814H21.5ZM4.5 12.1814C4.75488 12.1816 5.00003 12.2792 5.18537 12.4542C5.3707 12.6292 5.48223 12.8683 5.49717 13.1228C5.51211 13.3772 5.42932 13.6277 5.26573 13.8232C5.10214 14.0186 4.87009 14.1443 4.617 14.1744L4.5 14.1814H3.5C3.24512 14.1811 2.99997 14.0835 2.81463 13.9085C2.62929 13.7335 2.51776 13.4944 2.50283 13.24C2.48789 12.9855 2.57067 12.735 2.73426 12.5395C2.89785 12.3441 3.1299 12.2185 3.383 12.1884L3.5 12.1814H4.5ZM6.843 6.11036L7.55 6.81736C7.73216 7.00596 7.83295 7.25856 7.83067 7.52076C7.82839 7.78296 7.72323 8.03377 7.53782 8.21918C7.35241 8.40459 7.1016 8.50976 6.8394 8.51203C6.5772 8.51431 6.3246 8.41352 6.136 8.23136L5.429 7.52436C5.24684 7.33576 5.14605 7.08315 5.14832 6.82096C5.1506 6.55876 5.25577 6.30795 5.44118 6.12254C5.62659 5.93713 5.8774 5.83196 6.1396 5.82969C6.40179 5.82741 6.6544 5.9282 6.843 6.11036ZM18.157 6.11036C18.337 5.93101 18.5784 5.82689 18.8324 5.81913C19.0863 5.81138 19.3337 5.90057 19.5243 6.06861C19.7148 6.23664 19.8343 6.47091 19.8584 6.72383C19.8825 6.97676 19.8094 7.22937 19.654 7.43036L19.571 7.52436L18.864 8.23136C18.684 8.41071 18.4426 8.51483 18.1886 8.52259C17.9347 8.53034 17.6873 8.44114 17.4967 8.27311C17.3062 8.10508 17.1867 7.87081 17.1626 7.61788C17.1385 7.36496 17.2116 7.11235 17.367 6.91136L17.45 6.81736L18.157 6.11036Z" fill="#005773" fill-opacity="0.56"/>
<path d="M11.7718 3.28306C11.5977 3.46811 11.5006 3.71249 11.5002 3.96655L11.5002 4.9664L11.5079 5.09156C11.5402 5.34358 11.6671 5.57387 11.863 5.73568C12.0589 5.89749 12.309 5.97867 12.5626 5.96274C12.8161 5.94681 13.0541 5.83495 13.2282 5.6499C13.4023 5.46485 13.4994 5.22047 13.4999 4.9664L13.4999 3.96655L13.4921 3.8414C13.4598 3.58938 13.3329 3.35908 13.137 3.19728C12.9411 3.03547 12.691 2.95429 12.4374 2.97022C12.1839 2.98615 11.9459 3.098 11.7718 3.28306Z" fill="#005773" fill-opacity="0.56"/>
</g>
<defs>
<clipPath id="clip0_2_723">
<rect width="24" height="24" fill="white" transform="translate(0.5)"/>
</clipPath>
</defs>
</svg>
