<svg width="44" height="44" viewBox="0 0 44 44" fill="none" xmlns="http://www.w3.org/2000/svg">
<path d="M4 42V9.9814C4 8.51567 4 7.7828 4.40774 7.24522C4.81548 6.70765 5.52013 6.5115 6.92942 6.11921L20.9294 2.22212C21.4614 2.07404 21.7274 2 22 2C22.2726 2 22.5386 2.07404 23.0706 2.22212L37.0706 6.11921C38.4799 6.5115 39.1845 6.70765 39.5923 7.24522C40 7.7828 40 8.51567 40 9.9814V42" stroke="#141B34" stroke-width="3"/>
<path d="M2 42H42" stroke="#141B34" stroke-width="3" stroke-linecap="round"/>
<path d="M4 16L21.1323 12.0976C21.7038 11.9675 22.2962 11.9675 22.8677 12.0976L40 16" stroke="#141B34" stroke-width="3"/>
<path d="M37.3 23.4L40 24M29.2 21.6L31 22M23.8 20.4L22 20L20.2 20.4M6.7 23.4L4 24M14.8 21.6L13 22" stroke="#141B34" stroke-width="3" stroke-linecap="round"/>
<path d="M22 12V42" stroke="#141B34" stroke-width="3"/>
</svg>
