<svg width="23" height="22" viewBox="0 0 23 22" fill="none" xmlns="http://www.w3.org/2000/svg">
<path d="M12.655 3.02499C12.7985 2.92236 12.9664 2.85917 13.1419 2.84171C13.3174 2.82426 13.4945 2.85315 13.6553 2.92551C13.8162 2.99788 13.9553 3.11118 14.0587 3.2541C14.162 3.39702 14.2261 3.56456 14.2445 3.73999L14.25 3.84449V18.1555C14.2501 18.3319 14.2038 18.5052 14.116 18.6582C14.0281 18.8111 13.9016 18.9383 13.7492 19.0271C13.5968 19.1159 13.4237 19.1632 13.2473 19.1641C13.0709 19.1651 12.8973 19.1198 12.7439 19.0327L12.6559 18.9759L6.62334 14.6667H4.16668C3.70415 14.6668 3.25866 14.4921 2.91951 14.1776C2.58036 13.8631 2.37262 13.4321 2.33793 12.9708L2.33334 12.8333V9.16666C2.33343 8.70429 2.50822 8.25903 2.82269 7.92007C3.13717 7.58112 3.56811 7.3735 4.02918 7.33883L4.16668 7.33333H6.62334L12.655 3.02499ZM16.6205 8.40766L17.9167 9.70383L19.2128 8.40766C19.2974 8.32011 19.3986 8.25028 19.5104 8.20223C19.6222 8.15419 19.7425 8.12891 19.8642 8.12785C19.9859 8.12679 20.1066 8.14998 20.2193 8.19607C20.332 8.24216 20.4343 8.31023 20.5204 8.3963C20.6064 8.48237 20.6745 8.58471 20.7206 8.69737C20.7667 8.81002 20.7899 8.93073 20.7888 9.05244C20.7878 9.17416 20.7625 9.29444 20.7144 9.40628C20.6664 9.51812 20.5966 9.61927 20.509 9.70383L19.2128 11L20.509 12.2962C20.681 12.468 20.7777 12.7012 20.7778 12.9444C20.7779 13.1875 20.6814 13.4208 20.5095 13.5928C20.3376 13.7648 20.1044 13.8615 19.8612 13.8616C19.6181 13.8616 19.3848 13.7651 19.2128 13.5932L17.9167 12.2962L16.6205 13.5932C16.4485 13.7651 16.2153 13.8616 15.9721 13.8616C15.7289 13.8615 15.4958 13.7648 15.3239 13.5928C15.152 13.4208 15.0555 13.1875 15.0556 12.9444C15.0557 12.7012 15.1523 12.468 15.3243 12.2962L16.6205 11L15.3243 9.70383C15.2368 9.61927 15.167 9.51812 15.1189 9.40628C15.0709 9.29444 15.0456 9.17416 15.0445 9.05244C15.0435 8.93073 15.0667 8.81002 15.1128 8.69737C15.1588 8.58471 15.2269 8.48237 15.313 8.3963C15.399 8.31023 15.5014 8.24216 15.6141 8.19607C15.7267 8.14998 15.8474 8.12679 15.9691 8.12785C16.0908 8.12891 16.2111 8.15419 16.323 8.20223C16.4348 8.25028 16.536 8.32011 16.6205 8.40766Z" fill="#1E1E1E" fill-opacity="0.35"/>
</svg>
