<svg width="20" height="18" viewBox="0 0 20 18" fill="none" xmlns="http://www.w3.org/2000/svg">
<path d="M11.375 1.73522C11.375 0.774092 10.1774 0.335467 9.55656 1.06834L6.74744 4.38897C6.61835 4.5413 6.45763 4.66369 6.27645 4.74763C6.09527 4.83157 5.89799 4.87505 5.69831 4.87503H3.125C2.39565 4.87503 1.69618 5.16476 1.18046 5.68049C0.664731 6.19621 0.375 6.89568 0.375 7.62503V10.375C0.375 11.1044 0.664731 11.8038 1.18046 12.3196C1.69618 12.8353 2.39565 13.125 3.125 13.125H5.69831C5.89804 13.1251 6.09536 13.1687 6.27654 13.2527C6.45772 13.3368 6.61841 13.4593 6.74744 13.6118L9.55656 16.9317C10.1767 17.6646 11.375 17.226 11.375 16.2648V1.73522ZM13.7352 4.30853C13.8096 4.25735 13.8934 4.22134 13.9817 4.20256C14.0701 4.18377 14.1613 4.18258 14.2501 4.19906C14.3389 4.21553 14.4236 4.24934 14.4993 4.29856C14.5751 4.34778 14.6404 4.41144 14.6915 4.4859C15.6987 5.95028 16.2301 7.45865 16.2301 9.00003C16.2301 10.5414 15.6987 12.0498 14.6915 13.5148C14.6408 13.5902 14.5756 13.6548 14.4998 13.7049C14.4239 13.7549 14.3389 13.7895 14.2497 13.8065C14.1604 13.8234 14.0687 13.8226 13.9797 13.8039C13.8908 13.7852 13.8065 13.7491 13.7316 13.6976C13.6567 13.6461 13.5928 13.5803 13.5435 13.504C13.4942 13.4276 13.4605 13.3423 13.4444 13.2529C13.4283 13.1634 13.4301 13.0717 13.4497 12.983C13.4693 12.8942 13.5063 12.8103 13.5585 12.7359C14.4419 11.4503 14.8558 10.2087 14.8558 9.00003C14.8558 7.7914 14.4419 6.54978 13.5585 5.26484C13.4554 5.11458 13.4161 4.92951 13.4494 4.75031C13.4826 4.57112 13.5857 4.41246 13.7359 4.30922M16.6626 1.62797C16.5972 1.56567 16.5202 1.51686 16.436 1.48432C16.3517 1.45178 16.2619 1.43615 16.1717 1.43832C16.0814 1.44049 15.9924 1.46042 15.9099 1.49697C15.8273 1.53352 15.7527 1.58598 15.6904 1.65134C15.6281 1.71671 15.5793 1.7937 15.5468 1.87793C15.5143 1.96216 15.4986 2.05198 15.5008 2.14225C15.503 2.23252 15.5229 2.32147 15.5594 2.40404C15.596 2.48661 15.6484 2.56117 15.7138 2.62347C17.3549 4.18615 18.2081 6.56903 18.2081 9.00072C18.2081 11.4331 17.3549 13.8153 15.7138 15.378C15.6484 15.4403 15.596 15.5148 15.5594 15.5974C15.5229 15.68 15.503 15.7689 15.5008 15.8592C15.4986 15.9495 15.5143 16.0393 15.5468 16.1235C15.5793 16.2077 15.6281 16.2847 15.6904 16.3501C15.7527 16.4155 15.8273 16.4679 15.9099 16.5045C15.9924 16.541 16.0814 16.5609 16.1717 16.5631C16.2619 16.5653 16.3517 16.5497 16.436 16.5171C16.5202 16.4846 16.5972 16.4358 16.6626 16.3735C18.6309 14.4987 19.5824 11.7253 19.5824 9.00072C19.5824 6.27615 18.6309 3.50209 16.6619 1.62728" fill="#01B7F1"/>
</svg>
