<svg width="128" height="128" viewBox="0 0 128 128" fill="none" xmlns="http://www.w3.org/2000/svg">
<path d="M64 127.05C95.4802 127.05 121 101.53 121 70.0501C121 38.5698 95.4802 13.05 64 13.05C32.5198 13.05 7 38.5698 7 70.0501C7 101.53 32.5198 127.05 64 127.05Z" fill="#19699D"/>
<path d="M64 114.85C39.3 114.85 19.2 94.76 19.2 70.05C19.2 45.35 39.29 25.26 64 25.26C88.7 25.26 108.79 45.36 108.79 70.05C108.8 94.76 88.7 114.85 64 114.85Z" fill="white"/>
<path d="M64 20.48C36.66 20.48 14.42 42.73 14.42 70.06C14.42 97.4 36.66 119.64 64 119.64C91.34 119.64 113.58 97.4 113.58 70.06C113.58 42.72 91.34 20.48 64 20.48ZM64 114.85C39.3 114.85 19.2 94.76 19.2 70.05C19.2 45.35 39.29 25.26 64 25.26C88.7 25.26 108.79 45.36 108.79 70.05C108.8 94.76 88.7 114.85 64 114.85Z" fill="#BEE8F1"/>
<path d="M68.63 64.0799V43.5399H67.57V31.9799C67.57 30.4399 66.32 29.1899 64.78 29.1899H63.21C61.67 29.1899 60.42 30.4399 60.42 31.9799V43.5399H59.36V64.0799C57.19 65.7599 55.93 68.5599 56.57 71.6399C57.18 74.5799 59.55 76.9399 62.5 77.4999C67.34 78.4199 71.58 74.7399 71.58 70.0499C71.59 67.6099 70.42 65.4699 68.63 64.0799ZM61.62 71.6399C61.57 71.5599 61.53 71.4699 61.49 71.3899C61.27 70.9899 61.14 70.5399 61.14 70.0499C61.14 69.5699 61.27 69.1099 61.49 68.7099C61.97 67.8099 62.91 67.1899 64 67.1899C65.09 67.1899 66.03 67.8199 66.51 68.7199C66.72 69.1199 66.86 69.5699 66.86 70.0499C66.86 70.5399 66.73 70.9899 66.51 71.3899C66.47 71.4799 66.43 71.5699 66.38 71.6399C66.07 72.0999 65.64 72.4599 65.13 72.6799C65.12 72.6899 65.1 72.6899 65.09 72.6999C64.76 72.8299 64.39 72.9099 64.01 72.9099C63.62 72.9099 63.26 72.8299 62.93 72.6999C62.92 72.6899 62.9 72.6899 62.89 72.6799C62.36 72.4599 61.93 72.0999 61.62 71.6399Z" fill="#2F2F2F"/>
<path d="M102.74 72.92C104.32 72.92 105.6 71.6395 105.6 70.06C105.6 68.4804 104.32 67.2 102.74 67.2C101.16 67.2 99.88 68.4804 99.88 70.06C99.88 71.6395 101.16 72.92 102.74 72.92Z" fill="#2F2F2F"/>
<path d="M98.98 53.16C99.6361 52.7792 100.115 52.1542 100.312 51.4216C100.508 50.689 100.407 49.9082 100.03 49.25C99.6494 48.5964 99.0263 48.1195 98.296 47.9229C97.5657 47.7263 96.7873 47.8259 96.13 48.2C95.4739 48.5808 94.9952 49.2058 94.7985 49.9384C94.6018 50.671 94.703 51.4518 95.08 52.11C95.2666 52.4356 95.5156 52.7212 95.8128 52.9503C96.11 53.1794 96.4495 53.3475 96.8119 53.4451C97.1743 53.5427 97.5523 53.5677 97.9244 53.5188C98.2964 53.4698 98.6552 53.3479 98.98 53.16ZM84.8 34.03C84.4753 33.8418 84.1165 33.7197 83.7444 33.6706C83.3723 33.6216 82.9941 33.6465 82.6317 33.7441C82.2693 33.8417 81.9297 34.0099 81.6325 34.2392C81.3353 34.4685 81.0864 34.7542 80.9 35.08C80.7125 35.4049 80.5909 35.7636 80.5422 36.1356C80.4935 36.5076 80.5186 36.8855 80.6161 37.2478C80.7137 37.61 80.8817 37.9495 81.1106 38.2467C81.3394 38.544 81.6247 38.7931 81.95 38.98C83.32 39.77 85.07 39.3 85.85 37.93C86.0379 37.6052 86.1598 37.2464 86.2088 36.8744C86.2577 36.5023 86.2327 36.1243 86.1351 35.7619C86.0375 35.3995 85.8694 35.06 85.6403 34.7628C85.4112 34.4656 85.1256 34.2166 84.8 34.03ZM43.2 34.02C42.5448 34.3991 42.0665 35.0223 41.8697 35.7532C41.6729 36.4841 41.7737 37.2632 42.15 37.92C42.3366 38.2456 42.5856 38.5312 42.8828 38.7603C43.18 38.9894 43.5195 39.1575 43.8819 39.2551C44.2443 39.3527 44.6223 39.3777 44.9944 39.3288C45.3664 39.2798 45.7252 39.1579 46.05 38.97C46.3751 38.7829 46.66 38.5334 46.8883 38.2358C47.1166 37.9383 47.2839 37.5986 47.3806 37.2362C47.4772 36.8738 47.5013 36.4958 47.4514 36.1241C47.4016 35.7524 47.2787 35.3941 47.09 35.07C46.7125 34.4159 46.0911 33.9381 45.3619 33.7413C44.6328 33.5445 43.8554 33.6447 43.2 34.02Z" fill="#2F2F2F"/>
<path d="M32.9247 52.1076C33.7143 50.7396 33.2454 48.9905 31.8774 48.2009C30.5093 47.4113 28.7603 47.8802 27.9707 49.2482C27.1811 50.6162 27.6499 52.3653 29.018 53.1549C30.386 53.9445 32.1351 53.4756 32.9247 52.1076Z" fill="#2F2F2F"/>
<path d="M25.26 72.9099C26.8396 72.9099 28.12 71.6295 28.12 70.0499C28.12 68.4704 26.8396 67.1899 25.26 67.1899C23.6805 67.1899 22.4 68.4704 22.4 70.0499C22.4 71.6295 23.6805 72.9099 25.26 72.9099Z" fill="#2F2F2F"/>
<path d="M29.02 86.95C28.3664 87.3306 27.8895 87.9537 27.6929 88.684C27.4962 89.4143 27.5958 90.1927 27.97 90.85C28.1569 91.1753 28.406 91.4606 28.7033 91.6894C29.0005 91.9183 29.34 92.0863 29.7022 92.1839C30.0645 92.2814 30.4424 92.3065 30.8144 92.2578C31.1864 92.2091 31.5451 92.0875 31.87 91.9C32.1958 91.7136 32.4815 91.4647 32.7108 91.1675C32.9401 90.8703 33.1083 90.5307 33.2059 90.1683C33.3035 89.8059 33.3284 89.4277 33.2794 89.0556C33.2303 88.6835 33.1082 88.3247 32.92 88C32.5413 87.3444 31.9181 86.8657 31.187 86.6689C30.4559 86.4721 29.6767 86.5732 29.02 86.95Z" fill="#2F2F2F"/>
<path d="M47.1091 105.037C47.8987 103.669 47.4298 101.92 46.0618 101.131C44.6938 100.341 42.9447 100.81 42.1551 102.178C41.3655 103.546 41.8344 105.295 43.2024 106.085C44.5704 106.874 46.3195 106.405 47.1091 105.037Z" fill="#2F2F2F"/>
<path d="M64 111.66C65.5795 111.66 66.86 110.379 66.86 108.8C66.86 107.22 65.5795 105.94 64 105.94C62.4205 105.94 61.14 107.22 61.14 108.8C61.14 110.379 62.4205 111.66 64 111.66Z" fill="#2F2F2F"/>
<path d="M84.8031 106.086C86.1712 105.297 86.6401 103.548 85.8506 102.179C85.061 100.811 83.312 100.342 81.9439 101.132C80.5759 101.922 80.1069 103.671 80.8965 105.039C81.686 106.407 83.4351 106.876 84.8031 106.086Z" fill="#2F2F2F"/>
<path d="M100.026 90.8566C100.814 89.4939 100.343 87.7484 98.9759 86.958C97.6083 86.1676 95.8612 86.6316 95.0736 87.9944C94.286 89.3572 94.7561 91.1027 96.1236 91.893C97.4912 92.6834 99.2383 92.2194 100.026 90.8566Z" fill="#2F2F2F"/>
</svg>
