<svg width="44" height="38" viewBox="0 0 44 38" fill="none" xmlns="http://www.w3.org/2000/svg">
<path d="M37.295 5.87335L35.9789 3.78839C35.2503 2.63408 34.886 2.05693 34.4087 2.00356C33.9314 1.95019 33.3986 2.49791 32.3329 3.59335C28.8886 7.13378 25.4443 6.61073 22 12.9768C18.5557 6.61073 15.1114 7.13378 11.6671 3.59335C10.6014 2.49791 10.0686 1.95019 9.59129 2.00356C9.11401 2.05693 8.7497 2.63408 8.02108 3.78839L6.70502 5.87335C6.19655 6.6789 5.94231 7.08168 6.01106 7.5056C6.07981 7.92951 6.44648 8.21996 7.17982 8.80085L19.5447 18.5954C20.7269 19.5318 21.318 20 22 20C22.682 20 23.2731 19.5318 24.4553 18.5954L36.8202 8.80085C37.5535 8.21996 37.9202 7.92951 37.9889 7.5056C38.0577 7.08168 37.8035 6.6789 37.295 5.87335Z" stroke="#A1A1A1" stroke-width="3" stroke-linecap="round" stroke-linejoin="round"/>
<path d="M42 12L10 36V26.6087M2 12L34 36V26.6087" stroke="#A1A1A1" stroke-width="3" stroke-linecap="round" stroke-linejoin="round"/>
</svg>
