<svg width="20" height="21" viewBox="0 0 20 21" fill="none" xmlns="http://www.w3.org/2000/svg">
<path d="M2 21C1.45 21 0.979333 20.8043 0.588 20.413C0.196667 20.0217 0.000666667 19.5507 0 19V5.65L13.9 0L14.55 1.65L6.3 5H18C18.55 5 19.021 5.196 19.413 5.588C19.805 5.98 20.0007 6.45067 20 7V19C20 19.55 19.8043 20.021 19.413 20.413C19.0217 20.805 18.5507 21.0007 18 21H2ZM6 18C6.7 18 7.29167 17.7583 7.775 17.275C8.25833 16.7917 8.5 16.2 8.5 15.5C8.5 14.8 8.25833 14.2083 7.775 13.725C7.29167 13.2417 6.7 13 6 13C5.3 13 4.70833 13.2417 4.225 13.725C3.74167 14.2083 3.5 14.8 3.5 15.5C3.5 16.2 3.74167 16.7917 4.225 17.275C4.70833 17.7583 5.3 18 6 18ZM2 10H14V8H16V10H18V7H2V10Z" fill="black"/>
</svg>
