<svg width="34" height="34" viewBox="0 0 34 34" fill="none" xmlns="http://www.w3.org/2000/svg">
<path d="M11.6958 29.6667H7.5C6.62917 29.6667 5.88394 29.3569 5.26433 28.7373C4.64472 28.1176 4.33439 27.3719 4.33333 26.5V22.3042L1.28542 19.2167C0.995139 18.9 0.770833 18.5506 0.6125 18.1685C0.454167 17.7864 0.375 17.3969 0.375 17C0.375 16.6042 0.454167 16.2152 0.6125 15.8331C0.770833 15.451 0.995139 15.1011 1.28542 14.7833L4.33333 11.6958V7.5C4.33333 6.62917 4.64367 5.88394 5.26433 5.26433C5.885 4.64472 6.63022 4.33439 7.5 4.33333H11.6958L14.7833 1.28542C15.1 0.995139 15.4499 0.770833 15.8331 0.6125C16.2162 0.454167 16.6052 0.375 17 0.375C17.3958 0.375 17.7853 0.454167 18.1685 0.6125C18.5517 0.770833 18.9011 0.995139 19.2167 1.28542L22.3042 4.33333H26.5C27.3708 4.33333 28.1166 4.64367 28.7373 5.26433C29.3579 5.885 29.6677 6.63022 29.6667 7.5V11.6958L32.7146 14.7833C33.0049 15.1 33.2292 15.4499 33.3875 15.8331C33.5458 16.2162 33.625 16.6052 33.625 17C33.625 17.3958 33.5458 17.7853 33.3875 18.1685C33.2292 18.5517 33.0049 18.9011 32.7146 19.2167L29.6667 22.3042V26.5C29.6667 27.3708 29.3569 28.1166 28.7373 28.7373C28.1176 29.3579 27.3719 29.6677 26.5 29.6667H22.3042L19.2167 32.7146C18.9 33.0049 18.5506 33.2292 18.1685 33.3875C17.7864 33.5458 17.3969 33.625 17 33.625C16.6042 33.625 16.2152 33.5458 15.8331 33.3875C15.451 33.2292 15.1011 33.0049 14.7833 32.7146L11.6958 29.6667ZM18.6229 16.2083L20.9583 14.5063L23.2542 16.2083L22.3438 13.5167L24.6792 11.8146H21.8292L20.9583 9.08333L20.0875 11.8146H17.1979L19.5333 13.5167L18.6229 16.2083ZM17 24.9167C19.1903 24.9167 21.0576 24.1514 22.6018 22.6208C24.1461 21.0903 24.9177 19.2167 24.9167 17C24.9167 16.7889 24.9103 16.5778 24.8977 16.3667C24.885 16.1556 24.8517 15.9444 24.7979 15.7333C24.5076 16.9736 23.8611 17.9964 22.8583 18.8018C21.8556 19.6072 20.6813 20.0094 19.3354 20.0083C17.7521 20.0083 16.4194 19.4674 15.3375 18.3854C14.2556 17.3035 13.7146 15.9708 13.7146 14.3875C13.7146 13.1736 14.0576 12.0853 14.7438 11.1227C15.4299 10.16 16.3271 9.48022 17.4354 9.08333H17C14.7833 9.08333 12.9097 9.85547 11.3792 11.3998C9.84861 12.944 9.08333 14.8108 9.08333 17C9.08333 19.2167 9.84861 21.0903 11.3792 22.6208C12.9097 24.1514 14.7833 24.9167 17 24.9167Z" fill="#01B7F1"/>
</svg>
