<svg width="22" height="22" viewBox="0 0 22 22" fill="none" xmlns="http://www.w3.org/2000/svg">
<path d="M11 14.1271C12.6569 14.1271 14 12.7839 14 11.1271C14 9.47022 12.6569 8.12708 11 8.12708C9.34315 8.12708 8 9.47022 8 11.1271C8 12.7839 9.34315 14.1271 11 14.1271Z" stroke="#01B7F1" stroke-width="1.5"/>
<path d="M12.765 1.27908C12.398 1.12708 11.932 1.12708 11 1.12708C10.068 1.12708 9.60202 1.12708 9.23502 1.27908C8.9922 1.37959 8.77158 1.52697 8.58575 1.7128C8.39992 1.89863 8.25254 2.11926 8.15202 2.36208C8.06002 2.58508 8.02302 2.84608 8.00902 3.22508C8.00279 3.49906 7.92702 3.76697 7.78884 4.00365C7.65065 4.24032 7.45457 4.43798 7.21902 4.57808C6.97992 4.71212 6.71067 4.78318 6.43656 4.78458C6.16245 4.78598 5.89248 4.71767 5.65202 4.58608C5.31602 4.40808 5.07302 4.31008 4.83202 4.27808C4.30634 4.20895 3.77472 4.35138 3.35402 4.67408C3.04002 4.91708 2.80602 5.32008 2.34002 6.12708C1.87402 6.93408 1.64002 7.33707 1.58902 7.73207C1.55466 7.99253 1.57194 8.2572 1.63989 8.51097C1.70784 8.76474 1.82511 9.00264 1.98502 9.21107C2.13302 9.40307 2.34002 9.56408 2.66102 9.76608C3.13402 10.0631 3.43802 10.5691 3.43802 11.1271C3.43802 11.6851 3.13402 12.1911 2.66102 12.4871C2.34002 12.6901 2.13202 12.8511 1.98502 13.0431C1.82511 13.2515 1.70784 13.4894 1.63989 13.7432C1.57194 13.997 1.55466 14.2616 1.58902 14.5221C1.64102 14.9161 1.87402 15.3201 2.33902 16.1271C2.80602 16.9341 3.03902 17.3371 3.35402 17.5801C3.56246 17.74 3.80036 17.8573 4.05413 17.9252C4.3079 17.9932 4.57257 18.0104 4.83302 17.9761C5.07302 17.9441 5.31602 17.8461 5.65202 17.6681C5.89248 17.5365 6.16245 17.4682 6.43656 17.4696C6.71067 17.471 6.97992 17.542 7.21902 17.6761C7.70202 17.9561 7.98902 18.4711 8.00902 19.0291C8.02302 19.4091 8.05902 19.6691 8.15202 19.8921C8.25254 20.1349 8.39992 20.3555 8.58575 20.5414C8.77158 20.7272 8.9922 20.8746 9.23502 20.9751C9.60202 21.1271 10.068 21.1271 11 21.1271C11.932 21.1271 12.398 21.1271 12.765 20.9751C13.0078 20.8746 13.2285 20.7272 13.4143 20.5414C13.6001 20.3555 13.7475 20.1349 13.848 19.8921C13.94 19.6691 13.977 19.4091 13.991 19.0291C14.011 18.4711 14.298 17.9551 14.781 17.6761C15.0201 17.542 15.2894 17.471 15.5635 17.4696C15.8376 17.4682 16.1076 17.5365 16.348 17.6681C16.684 17.8461 16.927 17.9441 17.167 17.9761C17.4275 18.0104 17.6921 17.9932 17.9459 17.9252C18.1997 17.8573 18.4376 17.74 18.646 17.5801C18.961 17.3381 19.194 16.9341 19.66 16.1271C20.126 15.3201 20.36 14.9171 20.411 14.5221C20.4454 14.2616 20.4281 13.997 20.3602 13.7432C20.2922 13.4894 20.1749 13.2515 20.015 13.0431C19.867 12.8511 19.66 12.6901 19.339 12.4881C19.1048 12.3457 18.9105 12.1461 18.7746 11.908C18.6387 11.6699 18.5655 11.4012 18.562 11.1271C18.562 10.5691 18.866 10.0631 19.339 9.76708C19.66 9.56408 19.868 9.40307 20.015 9.21107C20.1749 9.00264 20.2922 8.76474 20.3602 8.51097C20.4281 8.2572 20.4454 7.99253 20.411 7.73207C20.359 7.33807 20.126 6.93408 19.661 6.12708C19.194 5.32008 18.961 4.91708 18.646 4.67408C18.4376 4.51417 18.1997 4.39689 17.9459 4.32894C17.6921 4.261 17.4275 4.24371 17.167 4.27808C16.927 4.31008 16.684 4.40808 16.347 4.58608C16.1067 4.71749 15.8369 4.7857 15.563 4.7843C15.2891 4.7829 15.02 4.71194 14.781 4.57808C14.5455 4.43798 14.3494 4.24032 14.2112 4.00365C14.073 3.76697 13.9973 3.49906 13.991 3.22508C13.977 2.84508 13.941 2.58508 13.848 2.36208C13.7475 2.11926 13.6001 1.89863 13.4143 1.7128C13.2285 1.52697 13.0078 1.37959 12.765 1.27908Z" stroke="#01B7F1" stroke-width="1.5"/>
</svg>
