<svg width="21" height="22" viewBox="0 0 21 22" fill="none" xmlns="http://www.w3.org/2000/svg">
<path d="M10.25 14.2163C11.9069 14.2163 13.25 12.8732 13.25 11.2163C13.25 9.55945 11.9069 8.21631 10.25 8.21631C8.59315 8.21631 7.25 9.55945 7.25 11.2163C7.25 12.8732 8.59315 14.2163 10.25 14.2163Z" stroke="#A1A1A1" stroke-width="1.5"/>
<path d="M12.015 1.36831C11.648 1.21631 11.182 1.21631 10.25 1.21631C9.318 1.21631 8.852 1.21631 8.485 1.36831C8.24218 1.46882 8.02155 1.6162 7.83572 1.80203C7.6499 1.98786 7.50251 2.20849 7.402 2.45131C7.31 2.67431 7.273 2.93531 7.259 3.31431C7.25277 3.5883 7.177 3.85621 7.03881 4.09288C6.90062 4.32955 6.70455 4.52721 6.469 4.66731C6.2299 4.80135 5.96064 4.87241 5.68653 4.87381C5.41243 4.87521 5.14246 4.8069 4.902 4.67531C4.566 4.49731 4.323 4.39931 4.082 4.36731C3.55632 4.29818 3.0247 4.44062 2.604 4.76331C2.29 5.00631 2.056 5.40931 1.59 6.21631C1.124 7.02331 0.89 7.42631 0.839 7.82131C0.804636 8.08176 0.82192 8.34643 0.889867 8.6002C0.957814 8.85397 1.07509 9.09187 1.235 9.30031C1.383 9.49231 1.59 9.65331 1.911 9.85531C2.384 10.1523 2.688 10.6583 2.688 11.2163C2.688 11.7743 2.384 12.2803 1.911 12.5763C1.59 12.7793 1.382 12.9403 1.235 13.1323C1.07509 13.3407 0.957814 13.5786 0.889867 13.8324C0.82192 14.0862 0.804636 14.3509 0.839 14.6113C0.891 15.0053 1.124 15.4093 1.589 16.2163C2.056 17.0233 2.289 17.4263 2.604 17.6693C2.81244 17.8292 3.05033 17.9465 3.30411 18.0144C3.55788 18.0824 3.82255 18.0997 4.083 18.0653C4.323 18.0333 4.566 17.9353 4.902 17.7573C5.14246 17.6257 5.41243 17.5574 5.68653 17.5588C5.96064 17.5602 6.2299 17.6313 6.469 17.7653C6.952 18.0453 7.239 18.5603 7.259 19.1183C7.273 19.4983 7.309 19.7583 7.402 19.9813C7.50251 20.2241 7.6499 20.4448 7.83572 20.6306C8.02155 20.8164 8.24218 20.9638 8.485 21.0643C8.852 21.2163 9.318 21.2163 10.25 21.2163C11.182 21.2163 11.648 21.2163 12.015 21.0643C12.2578 20.9638 12.4784 20.8164 12.6643 20.6306C12.8501 20.4448 12.9975 20.2241 13.098 19.9813C13.19 19.7583 13.227 19.4983 13.241 19.1183C13.261 18.5603 13.548 18.0443 14.031 17.7653C14.2701 17.6313 14.5394 17.5602 14.8135 17.5588C15.0876 17.5574 15.3575 17.6257 15.598 17.7573C15.934 17.9353 16.177 18.0333 16.417 18.0653C16.6775 18.0997 16.9421 18.0824 17.1959 18.0144C17.4497 17.9465 17.6876 17.8292 17.896 17.6693C18.211 17.4273 18.444 17.0233 18.91 16.2163C19.376 15.4093 19.61 15.0063 19.661 14.6113C19.6954 14.3509 19.6781 14.0862 19.6101 13.8324C19.5422 13.5786 19.4249 13.3407 19.265 13.1323C19.117 12.9403 18.91 12.7793 18.589 12.5773C18.3547 12.4349 18.1605 12.2353 18.0246 11.9972C17.8887 11.7592 17.8155 11.4904 17.812 11.2163C17.812 10.6583 18.116 10.1523 18.589 9.85631C18.91 9.65331 19.118 9.49231 19.265 9.30031C19.4249 9.09187 19.5422 8.85397 19.6101 8.6002C19.6781 8.34643 19.6954 8.08176 19.661 7.82131C19.609 7.42731 19.376 7.02331 18.911 6.21631C18.444 5.40931 18.211 5.00631 17.896 4.76331C17.6876 4.6034 17.4497 4.48612 17.1959 4.41818C16.9421 4.35023 16.6775 4.33294 16.417 4.36731C16.177 4.39931 15.934 4.49731 15.597 4.67531C15.3567 4.80672 15.0869 4.87493 14.813 4.87353C14.5391 4.87213 14.27 4.80117 14.031 4.66731C13.7955 4.52721 13.5994 4.32955 13.4612 4.09288C13.323 3.85621 13.2472 3.5883 13.241 3.31431C13.227 2.93431 13.191 2.67431 13.098 2.45131C12.9975 2.20849 12.8501 1.98786 12.6643 1.80203C12.4784 1.6162 12.2578 1.46882 12.015 1.36831Z" stroke="#A1A1A1" stroke-width="1.5"/>
</svg>
