<svg width="18" height="20" viewBox="0 0 18 20" fill="none" xmlns="http://www.w3.org/2000/svg">
<path fill-rule="evenodd" clip-rule="evenodd" d="M11.24 3.33301C11.24 1.49301 12.74 9.60172e-06 14.588 9.60172e-06C15.0268 -0.00104223 15.4614 0.0843342 15.8672 0.251264C16.2729 0.418194 16.6418 0.663408 16.9528 0.972906C17.2638 1.2824 17.5108 1.65012 17.6796 2.05507C17.8485 2.46002 17.936 2.89426 17.937 3.33301C17.937 5.17401 16.437 6.66701 14.588 6.66701C14.1446 6.66756 13.7055 6.57996 13.2962 6.40932C12.887 6.23868 12.5157 5.98839 12.204 5.67301L7.56901 8.82901C7.6981 9.47201 7.63479 10.1388 7.38701 10.746L12.469 14.086C13.0676 13.5978 13.8166 13.3318 14.589 13.333C15.0278 13.3321 15.4624 13.4176 15.8681 13.5846C16.2738 13.7517 16.6426 13.997 16.9535 14.3066C17.2644 14.6162 17.5113 14.984 17.68 15.389C17.8488 15.794 17.9361 16.2283 17.937 16.667C17.937 18.507 16.437 20 14.588 20C13.7021 20.0019 12.8517 19.6518 12.2239 19.0268C11.596 18.4017 11.2421 17.5529 11.24 16.667C11.2392 16.1996 11.3377 15.7374 11.529 15.311L6.48701 12C5.87642 12.5309 5.09413 12.8226 4.28501 12.821C3.84623 12.8221 3.41154 12.7366 3.00578 12.5696C2.60002 12.4026 2.23114 12.1573 1.92022 11.8477C1.60931 11.5381 1.36244 11.1702 1.19374 10.7652C1.02504 10.3601 0.937799 9.92579 0.937012 9.48701C0.93793 9.04831 1.02526 8.61409 1.19403 8.20915C1.36279 7.80421 1.60967 7.43648 1.92058 7.12697C2.23148 6.81746 2.60031 6.57223 3.00601 6.40528C3.4117 6.23834 3.84631 6.15296 4.28501 6.15401C5.34901 6.15401 6.29501 6.64701 6.90801 7.41501L11.401 4.35601C11.2941 4.02554 11.2398 3.68034 11.24 3.33301Z" fill="#005773"/>
</svg>
