<svg width="51" height="49" viewBox="0 0 51 49" fill="none" xmlns="http://www.w3.org/2000/svg">
<path d="M18.9863 1.59058C18.2246 1.59058 17.6191 2.18011 17.6191 2.93042C17.6191 3.68073 18.2246 4.27026 18.9863 4.27026C19.748 4.27026 20.3535 3.68073 20.3535 2.93042C20.3535 2.18011 19.748 1.59058 18.9863 1.59058V1.59058ZM21.7891 2.07866C21.8672 2.3495 21.916 2.63565 21.916 2.93042C21.916 3.22806 21.8672 3.51612 21.7891 3.78888C22.4043 3.82429 23.0391 3.88171 23.7031 3.9621C23.6738 3.81185 23.6641 3.65872 23.6641 3.50177C23.6641 3.06249 23.7617 2.64522 23.9375 2.26624C23.1953 2.17724 22.4824 2.11503 21.7891 2.07866V2.07866ZM26.9844 2.16192C26.2227 2.16192 25.6172 2.75145 25.6172 3.50177C25.6172 4.25208 26.2227 4.84161 26.9844 4.84161C27.7461 4.84161 28.3516 4.25208 28.3516 3.50177C28.3516 2.75145 27.7461 2.16192 26.9844 2.16192V2.16192ZM15.7051 2.47966C14.709 2.68063 13.7715 2.94478 12.9121 3.26347C13.293 3.69509 13.5566 4.23007 13.6445 4.81864C14.3574 4.56024 15.1191 4.34108 15.9395 4.16978C15.7637 3.78983 15.666 3.37065 15.666 2.93042C15.666 2.77729 15.6758 2.62704 15.7051 2.47966ZM29.9141 3.49794V3.50751C29.9141 4.1114 29.7285 4.67509 29.416 5.15169C29.8262 5.26558 30.2266 5.38616 30.6465 5.51536L30.6562 5.52493H30.6758C30.8125 5.56226 30.9492 5.60054 31.0859 5.63786C31.1152 5.03397 31.3301 4.47411 31.6719 4.00995C31.5059 3.9621 31.3301 3.9152 31.1543 3.86831C30.7344 3.7372 30.3242 3.61661 29.9141 3.50081V3.49794ZM10.7441 3.91999C9.98437 3.91999 9.38281 4.50952 9.38281 5.25983C9.38281 6.01015 9.98437 6.59968 10.7441 6.59968C11.5059 6.59968 12.1113 6.01015 12.1113 5.25983C12.1113 4.50952 11.5059 3.91999 10.7441 3.91999ZM34.4062 4.44253C33.6445 4.44253 33.0391 5.03206 33.0391 5.78237C33.0391 6.53268 33.6445 7.12222 34.4062 7.12222C35.168 7.12222 35.7734 6.53268 35.7734 5.78237C35.7734 5.03206 35.168 4.44253 34.4062 4.44253V4.44253ZM37.3164 6.09819C37.2578 6.69825 37.0137 7.24854 36.6426 7.69643C37.2383 7.98546 37.8047 8.28692 38.332 8.59987C38.498 8.02948 38.8398 7.52513 39.2793 7.14231C38.6641 6.77768 38.0098 6.42933 37.3164 6.09819ZM7.67773 6.44942C7.08789 7.00642 6.56738 7.59403 6.11621 8.19983C6.71679 8.32616 7.25586 8.62284 7.67578 9.03532C8.00879 8.60657 8.38086 8.18739 8.79687 7.7864C8.30566 7.45526 7.91406 6.99206 7.67773 6.44942V6.44942ZM41.5352 8.09743C40.7734 8.09743 40.168 8.68696 40.168 9.43727C40.168 10.1924 40.7734 10.7762 41.5352 10.7762C42.2969 10.7762 42.9023 10.1924 42.9023 9.43727C42.9023 8.68696 42.2969 8.09743 41.5352 8.09743ZM27.1797 8.57499C26.418 8.57499 25.8125 9.16452 25.8125 9.91483C25.8125 10.6709 26.418 11.2547 27.1797 11.2547C27.9414 11.2547 28.5469 10.6709 28.5469 9.91483C28.5469 9.16452 27.9414 8.57499 27.1797 8.57499ZM23.9766 9.08413C23.3711 9.23151 22.7559 9.42675 22.1504 9.65643C22.541 10.0871 22.8047 10.6326 22.8926 11.226C23.2734 11.0824 23.6445 10.9676 24.0156 10.8623C23.918 10.5656 23.8594 10.2498 23.8594 9.91483C23.8594 9.62772 23.8984 9.34923 23.9766 9.08413ZM30.0898 9.58944C30.0996 9.69472 30.1094 9.80956 30.1094 9.91483C30.1094 10.4221 29.9824 10.9006 29.7578 11.3217C30.0801 11.4365 30.4121 11.5514 30.7441 11.6853C30.832 11.092 31.1055 10.556 31.4961 10.1158C31.0273 9.9244 30.5488 9.75214 30.0898 9.58944ZM5.66211 9.85741C4.89648 9.85741 4.29492 10.4508 4.29492 11.1973C4.29492 11.9437 4.89648 12.5371 5.66211 12.5371C6.42773 12.5371 7.02929 11.9437 7.02929 11.1973C7.02929 10.4508 6.42773 9.85741 5.66211 9.85741ZM20.002 10.3359C19.2402 10.3359 18.6348 10.9293 18.6348 11.6758C18.6348 12.4223 19.2402 13.0156 20.002 13.0156C20.7637 13.0156 21.3691 12.4223 21.3691 11.6758C21.3691 10.9293 20.7637 10.3359 20.002 10.3359ZM33.8301 10.8144C33.0684 10.8144 32.4629 11.4078 32.4629 12.1543C32.4629 12.9008 33.0684 13.4941 33.8301 13.4941C34.5918 13.4941 35.1973 12.9008 35.1973 12.1543C35.1973 11.4078 34.5918 10.8144 33.8301 10.8144ZM44.0254 10.9963C43.7227 11.4939 43.2734 11.9055 42.7461 12.1734C43.0977 12.5849 43.4102 12.9965 43.7031 13.4271C44.1621 13.0635 44.7285 12.8242 45.3437 12.7668C44.9629 12.1543 44.5234 11.5609 44.0254 10.9963ZM16.7695 12.4031C16.2031 12.7476 15.6465 13.0922 15.0996 13.4463C15.5488 13.8195 15.8906 14.3172 16.0664 14.8914C16.5937 14.5564 17.1211 14.2215 17.6582 13.8961C17.2285 13.4941 16.916 12.9773 16.7695 12.4031V12.4031ZM36.8379 12.9869C36.6719 13.5611 36.3301 14.0683 35.8906 14.4512C36.1641 14.6521 36.4277 14.8627 36.6816 15.0828C36.9941 14.5756 37.4531 14.1641 38 13.9057C37.6191 13.5898 37.2383 13.2836 36.8379 12.9869V12.9869ZM3.83398 13.8004C3.72851 14.7766 3.77832 15.7049 3.99707 16.5471C4.41699 16.0781 4.97754 15.7432 5.61035 15.59C5.55078 15.1785 5.5332 14.7287 5.56347 14.2598H5.46679C4.87012 14.2598 4.31054 14.0971 3.83398 13.8004V13.8004ZM13.2637 14.4225C12.502 14.4225 11.8965 15.0158 11.8965 15.7623C11.8965 16.5088 12.502 17.1021 13.2637 17.1021C14.0254 17.1021 14.6309 16.5088 14.6309 15.7623C14.6309 15.0158 14.0254 14.4225 13.2637 14.4225ZM45.8516 14.4703C45.0898 14.4703 44.4844 15.0637 44.4844 15.8101C44.4844 16.5566 45.0898 17.15 45.8516 17.15C46.6133 17.15 47.2187 16.5566 47.2187 15.8101C47.2187 15.0637 46.6133 14.4703 45.8516 14.4703ZM39.5527 15.3221C38.791 15.3221 38.1855 15.9154 38.1855 16.6619C38.1855 17.4084 38.791 18.0017 39.5527 18.0017C40.3144 18.0017 40.9199 17.4084 40.9199 16.6619C40.9199 15.9154 40.3144 15.3221 39.5527 15.3221ZM10.0605 16.5662C9.71094 16.7576 9.37793 16.9299 9.06347 17.0734C9.3164 17.5232 9.46191 18.0305 9.46191 18.5664C9.46191 18.643 9.46191 18.7195 9.45215 18.7961C9.51562 18.7674 9.5791 18.7387 9.64355 18.71C10.0771 18.5185 10.5195 18.2889 10.9785 18.0305C10.5391 17.6476 10.2207 17.1404 10.0605 16.5662V16.5662ZM6.53222 17.2266C5.7666 17.2266 5.16504 17.8199 5.16504 18.5664C5.16504 19.3129 5.7666 19.9062 6.53222 19.9062C7.29785 19.9062 7.89941 19.3129 7.89941 18.5664C7.89941 17.8199 7.29785 17.2266 6.53222 17.2266V17.2266ZM47.1699 18.4898C46.7207 18.7291 46.2031 18.8726 45.6562 18.8726C45.5781 18.8726 45.5 18.8726 45.4316 18.8631C45.4414 19.4469 45.3926 20.0402 45.2949 20.6432C45.9199 20.6719 46.5059 20.8728 46.9844 21.2078C46.9844 21.1791 46.9941 21.1408 47.0039 21.1121L47.0137 21.1025V21.093C47.1602 20.2125 47.209 19.3416 47.1699 18.4898V18.4898ZM41.3594 19.0066C40.9004 19.3894 40.334 19.6383 39.709 19.7053C39.7969 20.2412 39.7969 20.7867 39.709 21.3705C40.3242 21.4471 40.8906 21.6959 41.3496 22.0691C41.584 21.0068 41.5742 19.9732 41.3594 19.0066V19.0066ZM5.34765 21.4662C5.37597 21.9351 5.41308 22.3945 5.45898 22.8539C5.84668 22.6816 6.27539 22.5859 6.72461 22.5859C6.88574 22.5859 7.04394 22.5955 7.19922 22.6242C7.16406 22.2605 7.13379 21.8969 7.11035 21.5332C6.8623 21.6002 6.60351 21.6289 6.33691 21.6289C5.99121 21.6289 5.65918 21.5715 5.34765 21.4662V21.4662ZM45.373 22.3658C44.6113 22.3658 44.0059 22.9592 44.0059 23.7057C44.0059 24.4521 44.6113 25.0455 45.373 25.0455C46.1348 25.0455 46.7402 24.4521 46.7402 23.7057C46.7402 22.9592 46.1348 22.3658 45.373 22.3658V22.3658ZM39.543 23.074C38.7812 23.074 38.1758 23.6674 38.1758 24.4139C38.1758 25.1603 38.7812 25.7537 39.543 25.7537C40.3047 25.7537 40.9102 25.1603 40.9102 24.4139C40.9102 23.6674 40.3047 23.074 39.543 23.074ZM6.91992 24.3086C6.15429 24.3086 5.55273 24.9019 5.55273 25.6484C5.55273 26.3949 6.15429 26.9883 6.91992 26.9883C7.68554 26.9883 8.28711 26.3949 8.28711 25.6484C8.28711 24.9019 7.68554 24.3086 6.91992 24.3086ZM36.3594 25.3135C35.8906 25.4666 35.373 25.591 34.8164 25.6867C34.9727 26.0599 35.0605 26.4619 35.0605 26.883C35.0605 27.0648 35.041 27.2371 35.0117 27.4094C35.8516 27.2658 36.6621 27.0744 37.4043 26.8064C36.916 26.4236 36.5547 25.9068 36.3594 25.3135V25.3135ZM32.1309 25.5432C31.3691 25.5432 30.7637 26.1365 30.7637 26.883C30.7637 27.6295 31.3691 28.2228 32.1309 28.2228C32.8926 28.2228 33.498 27.6295 33.498 26.883C33.498 26.1365 32.8926 25.5432 32.1309 25.5432ZM42.9902 25.8877C42.7266 26.3183 42.4434 26.7586 42.1504 27.2084L41.6816 27.8974C42.2578 28.0601 42.7754 28.3855 43.166 28.8258C43.3223 28.5961 43.4785 28.376 43.625 28.1463C43.9473 27.6582 44.2598 27.1797 44.543 26.7012C43.9473 26.5863 43.4102 26.2896 42.9902 25.8877V25.8877ZM28.8691 26.2801C28.1367 26.3279 27.3945 26.3853 26.6816 26.4619L26.418 26.4906C26.584 26.8543 26.6719 27.2658 26.6719 27.6869C26.6719 27.8592 26.6523 28.0314 26.623 28.2037C26.7109 28.1941 26.7891 28.1846 26.8672 28.175C27.5605 28.108 28.2832 28.0506 29.0254 27.9932C28.8887 27.6486 28.8105 27.2754 28.8105 26.883C28.8105 26.6724 28.8301 26.4715 28.8691 26.2801V26.2801ZM23.7422 26.3471C22.9805 26.3471 22.375 26.9404 22.375 27.6869C22.375 28.4334 22.9805 29.0267 23.7422 29.0267C24.5039 29.0267 25.1094 28.4334 25.1094 27.6869C25.1094 26.9404 24.5039 26.3471 23.7422 26.3471ZM8.37597 28.242C7.89551 28.5387 7.3291 28.7109 6.72461 28.7109H6.68554C6.93457 29.4383 7.22461 30.1465 7.55761 30.8355C7.94629 30.3953 8.45996 30.0603 9.04297 29.8881C8.79297 29.3521 8.57226 28.8066 8.37597 28.242V28.242ZM20.5488 28.5482C20.5293 28.5769 20.5 28.5961 20.4805 28.6248C19.7969 29.3904 19.4746 30.4527 19.6211 31.6394C19.6504 31.8596 19.6895 32.0797 19.7383 32.3094C20.2168 31.9744 20.8027 31.783 21.418 31.7639C21.3984 31.649 21.3789 31.5437 21.3691 31.4385C21.291 30.8164 21.3789 30.4049 21.5742 30.0603C21.0957 29.6775 20.7344 29.1512 20.5488 28.5482V28.5482ZM41.0078 29.4957C40.2461 29.4957 39.6406 30.0891 39.6406 30.8355C39.6406 31.582 40.2461 32.1754 41.0078 32.1754C41.7695 32.1754 42.375 31.582 42.375 30.8355C42.375 30.0891 41.7695 29.4957 41.0078 29.4957ZM10.1191 31.4863C9.35351 31.4863 8.75195 32.0797 8.75195 32.8262C8.75195 33.5726 9.35351 34.166 10.1191 34.166C10.8809 34.166 11.4766 33.5726 11.4766 32.8262C11.4766 32.0797 10.8809 31.4863 10.1191 31.4863ZM38.0977 32.3381C37.6094 32.8549 37.1211 33.3525 36.6133 33.831C37.1016 34.1564 37.4922 34.6254 37.7266 35.1709C38.2832 34.6445 38.8301 34.099 39.3574 33.5439C38.8301 33.2664 38.3906 32.8453 38.0977 32.3381ZM21.7012 33.4865C20.9395 33.4865 20.334 34.0799 20.334 34.8264C20.334 35.5728 20.9395 36.1662 21.7012 36.1662C22.4629 36.1662 23.0684 35.5728 23.0684 34.8264C23.0684 34.0799 22.4629 33.4865 21.7012 33.4865ZM12.707 34.4435L10.8711 35.8504C10.5684 36.817 12.5508 45.526 14.5625 47.4113L15.002 46.8945L13.6836 40.9801L15.6855 46.2246C15.7246 46.1959 16.0078 46.0045 16.0469 45.9758L15.207 43.5162L16.5645 45.593C17.3945 45.0474 18.2539 44.8082 19.9141 44.6646L18.3613 41.717L21.3984 44.6072C22.1992 44.6072 23.1074 44.6551 24.1328 44.7508C21.8574 41.9945 15.8906 35.324 12.707 34.4435ZM35.041 35.0082C34.2793 35.0082 33.6738 35.6015 33.6738 36.348C33.6738 37.0945 34.2793 37.6879 35.041 37.6879C35.8027 37.6879 36.4082 37.0945 36.4082 36.348C36.4082 35.6015 35.8027 35.0082 35.041 35.0082ZM24.0547 36.5873C23.7227 37.0562 23.2539 37.4295 22.707 37.6496C23.1953 38.1664 23.7129 38.5971 24.25 38.9416C24.2891 38.3291 24.5039 37.7644 24.8457 37.3051C24.582 37.0945 24.3184 36.8648 24.0547 36.5873ZM31.8769 37.2859C31.3301 37.5635 30.8027 37.7932 30.2754 37.9654C30.4219 38.3099 30.5 38.6928 30.5 39.0947C30.5 39.3148 30.4805 39.5254 30.4316 39.7264C31.2617 39.4967 32.0723 39.1521 32.8828 38.731C32.4141 38.3578 32.0625 37.8601 31.8769 37.2859V37.2859ZM27.5703 37.7549C26.8086 37.7549 26.2031 38.3482 26.2031 39.0947C26.2031 39.8412 26.8086 40.4346 27.5703 40.4346C28.332 40.4346 28.9375 39.8412 28.9375 39.0947C28.9375 38.3482 28.332 37.7549 27.5703 37.7549Z" fill="#01B7F1"/>
</svg>
