<svg width="22" height="22" viewBox="0 0 22 22" fill="none" xmlns="http://www.w3.org/2000/svg">
<path d="M14.7106 2.7198C14.7106 3.67529 13.9367 4.44986 12.982 4.44986C12.0273 4.44986 11.2534 3.67529 11.2534 2.7198C11.2534 1.76432 12.0273 0.989746 12.982 0.989746C13.9367 0.989746 14.7106 1.76432 14.7106 2.7198Z" stroke="#141B34" stroke-width="1.5"/>
<path d="M10.2826 4.54829C10.2826 5.50378 9.50866 6.27835 8.55397 6.27835C7.59927 6.27835 6.82534 5.50378 6.82534 4.54829C6.82534 3.59281 7.59927 2.81824 8.55397 2.81824C9.50866 2.81824 10.2826 3.59281 10.2826 4.54829Z" stroke="#141B34" stroke-width="1.5"/>
<path d="M8.45139 8.99995C8.45139 9.95544 7.67746 10.73 6.72276 10.73C5.76807 10.73 4.99414 9.95544 4.99414 8.99995C4.99414 8.04447 5.76807 7.2699 6.72276 7.2699C7.67746 7.2699 8.45139 8.04447 8.45139 8.99995Z" stroke="#141B34" stroke-width="1.5"/>
<path d="M10.2645 13.4367C10.2645 14.3922 9.49054 15.1668 8.53585 15.1668C7.58115 15.1668 6.80722 14.3922 6.80722 13.4367C6.80722 12.4812 7.58115 11.7067 8.53585 11.7067C9.49054 11.7067 10.2645 12.4812 10.2645 13.4367Z" stroke="#141B34" stroke-width="1.5"/>
<path d="M14.7145 15.2839C14.7145 16.2394 13.9406 17.0139 12.9859 17.0139C12.0312 17.0139 11.2573 16.2394 11.2573 15.2839C11.2573 14.3284 12.0312 13.5538 12.9859 13.5538C13.9406 13.5538 14.7145 14.3284 14.7145 15.2839Z" stroke="#141B34" stroke-width="1.5"/>
<path d="M19.165 13.4367C19.165 14.3922 18.391 15.1668 17.4363 15.1668C16.4816 15.1668 15.7077 14.3922 15.7077 13.4367C15.7077 12.4812 16.4816 11.7067 17.4363 11.7067C18.391 11.7067 19.165 12.4812 19.165 13.4367Z" stroke="#141B34" stroke-width="1.5"/>
<path d="M21.0023 8.99995C21.0023 9.95544 20.2283 10.73 19.2737 10.73C18.319 10.73 17.545 9.95544 17.545 8.99995C17.545 8.04447 18.319 7.2699 19.2737 7.2699C20.2283 7.2699 21.0023 8.04447 21.0023 8.99995Z" stroke="#141B34" stroke-width="1.5"/>
<path d="M19.165 4.56279C19.165 5.51827 18.391 6.29285 17.4363 6.29285C16.4816 6.29285 15.7077 5.51827 15.7077 4.56279C15.7077 3.60731 16.4816 2.83273 17.4363 2.83273C18.391 2.83273 19.165 3.60731 19.165 4.56279Z" stroke="#141B34" stroke-width="1.5"/>
<path d="M6.76257 13.8387L1.89082 16.2928C1.16427 16.6868 0.730101 17.1442 1.20426 17.9904C1.40438 18.3602 1.82614 18.9819 2.4338 19.5938M8.15084 15.2254L5.70286 20.0825C5.15332 21.1731 4.627 21.0462 4.19406 20.891C3.50402 20.5495 2.91147 20.0747 2.4338 19.5938M2.4338 19.5938L4.10927 17.8844" stroke="#141B34" stroke-width="1.5" stroke-linecap="round" stroke-linejoin="round"/>
</svg>
