<svg width="22" height="22" viewBox="0 0 22 22" fill="none" xmlns="http://www.w3.org/2000/svg">
<path d="M16.9062 6.57032L16.04 5.56256C15.3055 4.79113 14.4218 4.1772 13.4425 3.75815C12.4632 3.3391 11.4089 3.12368 10.3437 3.12501C5.99609 3.12501 2.46875 6.65235 2.46875 11C2.46875 15.3477 5.99609 18.875 10.3437 18.875C11.9725 18.8749 13.5612 18.37 14.8911 17.4298C16.2211 16.4897 17.227 15.1604 17.7704 13.625" stroke="#01B7F1" stroke-width="1.5" stroke-miterlimit="10" stroke-linecap="round"/>
<path d="M19.5313 4.49574V9.03125C19.5313 9.20529 19.4621 9.37221 19.3391 9.49528C19.216 9.61835 19.0491 9.68749 18.875 9.68749H14.3395C13.7546 9.68749 13.4618 8.9808 13.8752 8.56736L18.4111 4.03144C18.8246 3.61718 19.5313 3.91085 19.5313 4.49574Z" fill="#01B7F1"/>
</svg>
